<?xml version="1.0" encoding="UTF-8"?>
<svg id="Capa_2" data-name="Capa 2" xmlns="http://www.w3.org/2000/svg" xmlns:xlink="http://www.w3.org/1999/xlink" viewBox="0 0 100 96.9">
  <defs>
    <style>
      .cls-1 {
        fill: url(#Degradado_sin_nombre_5);
      }

      .cls-2 {
        fill: #fff;
      }

      .cls-3 {
        fill: url(#Degradado_sin_nombre_17);
      }

      .cls-4 {
        fill: url(#Degradado_sin_nombre_22);
      }

      .cls-5 {
        fill: url(#Degradado_sin_nombre_14);
      }
    </style>
    <linearGradient id="Degradado_sin_nombre_22" data-name="Degradado sin nombre 22" x1="50" y1="24.23" x2="100" y2="24.23" gradientUnits="userSpaceOnUse">
      <stop offset="0" stop-color="#6e5af0"/>
      <stop offset="1" stop-color="#5074f9"/>
    </linearGradient>
    <linearGradient id="Degradado_sin_nombre_5" data-name="Degradado sin nombre 5" x1="0" y1="24.23" x2="50" y2="24.23" gradientUnits="userSpaceOnUse">
      <stop offset="0" stop-color="#e341a2"/>
      <stop offset="1" stop-color="#a856dc"/>
    </linearGradient>
    <linearGradient id="Degradado_sin_nombre_14" data-name="Degradado sin nombre 14" x1="0" y1="72.68" x2="50" y2="72.68" gradientUnits="userSpaceOnUse">
      <stop offset=".01" stop-color="#fe8626"/>
      <stop offset="1" stop-color="#fb5e80"/>
    </linearGradient>
    <linearGradient id="Degradado_sin_nombre_17" data-name="Degradado sin nombre 17" x1="50" y1="72.68" x2="100" y2="72.68" gradientUnits="userSpaceOnUse">
      <stop offset=".01" stop-color="#2fb4e6"/>
      <stop offset="1" stop-color="#628def"/>
    </linearGradient>
  </defs>
  <g id="Capa_1-2" data-name="Capa 1">
    <g>
      <g>
        <path class="cls-4" d="M100,48.45V14.85c0-8.2-6.65-14.85-14.85-14.85h-35.15v48.45h50Z"/>
        <path class="cls-1" d="M50,0H14.85C6.65,0,0,6.65,0,14.85v33.61h50V0Z"/>
        <path class="cls-5" d="M0,48.45v33.61c0,8.2,6.65,14.85,14.85,14.85h35.15v-48.45H0Z"/>
        <path class="cls-3" d="M50,48.45v48.45h35.15c8.2,0,14.85-6.65,14.85-14.85v-33.61h-50Z"/>
      </g>
      <path class="cls-2" d="M72.58,80.09v-3.18H27.42c-.92,0-1.78-.18-2.56-.52-1.18-.5-2.19-1.34-2.9-2.39-.71-1.06-1.12-2.31-1.12-3.68V26.59c0-.92.18-1.78.52-2.56.5-1.18,1.34-2.19,2.39-2.9,1.06-.71,2.31-1.12,3.68-1.12h45.15c.92,0,1.78.18,2.56.52,1.18.5,2.19,1.34,2.9,2.39.71,1.06,1.12,2.31,1.12,3.68v43.73c0,.92-.18,1.78-.52,2.56-.5,1.18-1.34,2.19-2.39,2.9-1.06.71-2.31,1.12-3.68,1.12v6.36c3.57,0,6.83-1.45,9.16-3.79,2.34-2.33,3.8-5.59,3.79-9.16V26.59c0-3.57-1.45-6.83-3.79-9.16-2.33-2.34-5.59-3.8-9.16-3.79H27.42c-3.57,0-6.83,1.45-9.16,3.79-2.34,2.33-3.8,5.59-3.79,9.16v43.73c0,3.57,1.45,6.83,3.79,9.16,2.33,2.34,5.59,3.8,9.16,3.79h45.15v-3.18Z"/>
    </g>
  </g>
</svg>