<?xml version="1.0" encoding="UTF-8"?>
<svg id="Capa_1" data-name="Capa 1" xmlns="http://www.w3.org/2000/svg" xmlns:xlink="http://www.w3.org/1999/xlink" viewBox="0 0 674.12 690.58">
  <defs>
    <style>
      .cls-1 {
        fill: url(#Degradado_sin_nombre_18);
      }

      .cls-1, .cls-2, .cls-3, .cls-4, .cls-5, .cls-6, .cls-7, .cls-8, .cls-9, .cls-10, .cls-11, .cls-12, .cls-13, .cls-14, .cls-15, .cls-16, .cls-17, .cls-18, .cls-19, .cls-20, .cls-21, .cls-22, .cls-23, .cls-24, .cls-25, .cls-26, .cls-27, .cls-28, .cls-29, .cls-30 {
        isolation: isolate;
      }

      .cls-1, .cls-2, .cls-3, .cls-4, .cls-5, .cls-6, .cls-7, .cls-8, .cls-9, .cls-10, .cls-11, .cls-13, .cls-14, .cls-15, .cls-16, .cls-17, .cls-18, .cls-19, .cls-20, .cls-21, .cls-22, .cls-23, .cls-24, .cls-25, .cls-26, .cls-27, .cls-29, .cls-30 {
        mix-blend-mode: screen;
      }

      .cls-1, .cls-2, .cls-3, .cls-4, .cls-5, .cls-6, .cls-8, .cls-9, .cls-10, .cls-11, .cls-13, .cls-14, .cls-15, .cls-16, .cls-18, .cls-19, .cls-21, .cls-22, .cls-23, .cls-24, .cls-25, .cls-26, .cls-27, .cls-29, .cls-30 {
        opacity: .29;
      }

      .cls-31 {
        stroke-dasharray: 12 20;
        stroke-width: 5px;
      }

      .cls-31, .cls-32 {
        stroke: #fff;
      }

      .cls-31, .cls-32, .cls-33, .cls-34, .cls-35, .cls-36, .cls-37, .cls-38 {
        fill: none;
      }

      .cls-31, .cls-32, .cls-33, .cls-35, .cls-36, .cls-37, .cls-38 {
        stroke-linecap: round;
        stroke-linejoin: round;
      }

      .cls-2 {
        fill: url(#Degradado_sin_nombre_19);
      }

      .cls-3 {
        fill: url(#Degradado_sin_nombre_9);
      }

      .cls-4 {
        fill: url(#Degradado_sin_nombre_25);
      }

      .cls-32, .cls-33, .cls-38 {
        stroke-width: 4px;
      }

      .cls-5 {
        fill: url(#Degradado_sin_nombre_15);
      }

      .cls-6 {
        fill: url(#Degradado_sin_nombre_7);
      }

      .cls-33, .cls-35 {
        stroke: #fe0;
      }

      .cls-7 {
        fill: url(#Degradado_sin_nombre_2);
      }

      .cls-7, .cls-17 {
        opacity: .25;
      }

      .cls-8 {
        fill: url(#Degradado_sin_nombre_27);
      }

      .cls-35 {
        stroke-width: 2px;
      }

      .cls-9 {
        fill: url(#Degradado_sin_nombre_29);
      }

      .cls-36 {
        stroke-width: 4px;
      }

      .cls-36, .cls-38 {
        stroke: #de0009;
      }

      .cls-39 {
        clip-path: url(#clippath-1);
      }

      .cls-10 {
        fill: url(#Degradado_sin_nombre_10);
      }

      .cls-11 {
        fill: url(#Degradado_sin_nombre_24);
      }

      .cls-13 {
        fill: url(#Degradado_sin_nombre_23);
      }

      .cls-37 {
        stroke: #000;
      }

      .cls-40 {
        fill: #de0009;
      }

      .cls-14 {
        fill: url(#Degradado_sin_nombre_28);
      }

      .cls-15 {
        fill: url(#Degradado_sin_nombre_5);
      }

      .cls-16 {
        fill: url(#Degradado_sin_nombre_17);
      }

      .cls-17 {
        fill: url(#Degradado_sin_nombre_16);
      }

      .cls-18 {
        fill: url(#Degradado_sin_nombre_21);
      }

      .cls-19 {
        fill: url(#Degradado_sin_nombre_22);
      }

      .cls-20 {
        fill: url(#Degradado_sin_nombre);
        opacity: .38;
      }

      .cls-21 {
        fill: url(#Degradado_sin_nombre_6);
      }

      .cls-22 {
        fill: url(#Degradado_sin_nombre_14);
      }

      .cls-23 {
        fill: url(#Degradado_sin_nombre_4);
      }

      .cls-24 {
        fill: url(#Degradado_sin_nombre_20);
      }

      .cls-25 {
        fill: url(#Degradado_sin_nombre_8);
      }

      .cls-26 {
        fill: url(#Degradado_sin_nombre_12);
      }

      .cls-41 {
        clip-path: url(#clippath);
      }

      .cls-27 {
        fill: url(#Degradado_sin_nombre_13);
      }

      .cls-28 {
        fill: #fff;
        font-family: Anton-Regular, Anton;
        font-size: 68.22px;
      }

      .cls-29 {
        fill: url(#Degradado_sin_nombre_11);
      }

      .cls-30 {
        fill: url(#Degradado_sin_nombre_3);
      }
    </style>
    <clipPath id="clippath">
      <rect class="cls-34" x="-29.62" y="-9.5" width="718.5" height="718.5"/>
    </clipPath>
    <radialGradient id="Degradado_sin_nombre" data-name="Degradado sin nombre" cx="-109.1" cy="591.39" fx="-109.1" fy="591.39" r="319.13" gradientTransform="translate(493.01 -534.6) scale(1.42 1.45)" gradientUnits="userSpaceOnUse">
      <stop offset="0" stop-color="#bb0923"/>
      <stop offset=".04" stop-color="#bd0825" stop-opacity=".95"/>
      <stop offset=".71" stop-color="#e70445" stop-opacity=".27"/>
      <stop offset="1" stop-color="#f80353" stop-opacity="0"/>
    </radialGradient>
    <clipPath id="clippath-1">
      <rect class="cls-34" x="-22.17" y="-16" width="718.58" height="670.22" transform="translate(-7.1 7.67) rotate(-1.29)"/>
    </clipPath>
    <linearGradient id="Degradado_sin_nombre_2" data-name="Degradado sin nombre 2" x1="-2205.75" y1="512.7" x2="-1874.43" y2="1086.56" gradientTransform="translate(-1557.57 -366.13) rotate(174.17) scale(1 -1)" gradientUnits="userSpaceOnUse">
      <stop offset="0" stop-color="#fff"/>
      <stop offset=".03" stop-color="#fffdee" stop-opacity=".93"/>
      <stop offset=".14" stop-color="#fff9b7" stop-opacity=".72"/>
      <stop offset=".26" stop-color="#fff686" stop-opacity=".53"/>
      <stop offset=".37" stop-color="#fff35c" stop-opacity=".36"/>
      <stop offset=".49" stop-color="#fff13b" stop-opacity=".23"/>
      <stop offset=".61" stop-color="#ffef21" stop-opacity=".13"/>
      <stop offset=".73" stop-color="#ffee0e" stop-opacity=".06"/>
      <stop offset=".86" stop-color="#ffed03" stop-opacity="0"/>
      <stop offset="1" stop-color="#ffed00" stop-opacity="0"/>
    </linearGradient>
    <radialGradient id="Degradado_sin_nombre_3" data-name="Degradado sin nombre 3" cx="505.97" cy="-16592.17" fx="505.97" fy="-16592.17" r="24.56" gradientTransform="translate(12968.11 -10929.4) rotate(50.04) scale(1 -1)" gradientUnits="userSpaceOnUse">
      <stop offset="0" stop-color="#fff"/>
      <stop offset=".03" stop-color="#fff" stop-opacity=".92"/>
      <stop offset=".09" stop-color="#fff" stop-opacity=".73"/>
      <stop offset=".17" stop-color="#fff" stop-opacity=".56"/>
      <stop offset=".25" stop-color="#fff" stop-opacity=".41"/>
      <stop offset=".33" stop-color="#fff" stop-opacity=".28"/>
      <stop offset=".42" stop-color="#fff" stop-opacity=".18"/>
      <stop offset=".52" stop-color="#fff" stop-opacity=".1"/>
      <stop offset=".63" stop-color="#fff" stop-opacity=".04"/>
      <stop offset=".77" stop-color="#fff" stop-opacity="0"/>
      <stop offset="1" stop-color="#fff" stop-opacity="0"/>
    </radialGradient>
    <radialGradient id="Degradado_sin_nombre_4" data-name="Degradado sin nombre 4" cx="500.54" cy="-16813.85" fx="500.54" fy="-16813.85" r="24.56" gradientTransform="translate(-1615.56 -16341.3) rotate(-5.83) scale(1 -1)" gradientUnits="userSpaceOnUse">
      <stop offset="0" stop-color="#fff"/>
      <stop offset=".03" stop-color="#fff" stop-opacity=".92"/>
      <stop offset=".09" stop-color="#fff" stop-opacity=".73"/>
      <stop offset=".17" stop-color="#fff" stop-opacity=".56"/>
      <stop offset=".25" stop-color="#fff" stop-opacity=".41"/>
      <stop offset=".33" stop-color="#fff" stop-opacity=".28"/>
      <stop offset=".42" stop-color="#fff" stop-opacity=".18"/>
      <stop offset=".52" stop-color="#fff" stop-opacity=".1"/>
      <stop offset=".63" stop-color="#fff" stop-opacity=".04"/>
      <stop offset=".77" stop-color="#fff" stop-opacity="0"/>
      <stop offset="1" stop-color="#fff" stop-opacity="0"/>
    </radialGradient>
    <radialGradient id="Degradado_sin_nombre_5" data-name="Degradado sin nombre 5" cx="555" cy="-16694.05" fx="555" fy="-16694.05" r="24.56" gradientTransform="translate(-1616.78 -16341.41) rotate(-5.84) scale(1 -1)" gradientUnits="userSpaceOnUse">
      <stop offset="0" stop-color="#fff"/>
      <stop offset=".03" stop-color="#fff" stop-opacity=".92"/>
      <stop offset=".09" stop-color="#fff" stop-opacity=".73"/>
      <stop offset=".17" stop-color="#fff" stop-opacity=".56"/>
      <stop offset=".25" stop-color="#fff" stop-opacity=".41"/>
      <stop offset=".33" stop-color="#fff" stop-opacity=".28"/>
      <stop offset=".42" stop-color="#fff" stop-opacity=".18"/>
      <stop offset=".52" stop-color="#fff" stop-opacity=".1"/>
      <stop offset=".63" stop-color="#fff" stop-opacity=".04"/>
      <stop offset=".77" stop-color="#fff" stop-opacity="0"/>
      <stop offset="1" stop-color="#fff" stop-opacity="0"/>
    </radialGradient>
    <radialGradient id="Degradado_sin_nombre_6" data-name="Degradado sin nombre 6" cx="306.82" cy="-16859.15" fx="306.82" fy="-16859.15" r="24.56" gradientTransform="translate(-1616.87 -16341.4) rotate(-5.84) scale(1 -1)" gradientUnits="userSpaceOnUse">
      <stop offset="0" stop-color="#fff"/>
      <stop offset=".03" stop-color="#fff" stop-opacity=".92"/>
      <stop offset=".09" stop-color="#fff" stop-opacity=".73"/>
      <stop offset=".17" stop-color="#fff" stop-opacity=".56"/>
      <stop offset=".25" stop-color="#fff" stop-opacity=".41"/>
      <stop offset=".33" stop-color="#fff" stop-opacity=".28"/>
      <stop offset=".42" stop-color="#fff" stop-opacity=".18"/>
      <stop offset=".52" stop-color="#fff" stop-opacity=".1"/>
      <stop offset=".63" stop-color="#fff" stop-opacity=".04"/>
      <stop offset=".77" stop-color="#fff" stop-opacity="0"/>
      <stop offset="1" stop-color="#fff" stop-opacity="0"/>
    </radialGradient>
    <radialGradient id="Degradado_sin_nombre_7" data-name="Degradado sin nombre 7" cx="357.68" cy="-16771.56" fx="357.68" fy="-16771.56" r="24.56" gradientTransform="translate(-1616.11 -16341.26) rotate(-5.83) scale(1 -1)" gradientUnits="userSpaceOnUse">
      <stop offset="0" stop-color="#fff"/>
      <stop offset=".03" stop-color="#fff" stop-opacity=".92"/>
      <stop offset=".09" stop-color="#fff" stop-opacity=".73"/>
      <stop offset=".17" stop-color="#fff" stop-opacity=".56"/>
      <stop offset=".25" stop-color="#fff" stop-opacity=".41"/>
      <stop offset=".33" stop-color="#fff" stop-opacity=".28"/>
      <stop offset=".42" stop-color="#fff" stop-opacity=".18"/>
      <stop offset=".52" stop-color="#fff" stop-opacity=".1"/>
      <stop offset=".63" stop-color="#fff" stop-opacity=".04"/>
      <stop offset=".77" stop-color="#fff" stop-opacity="0"/>
      <stop offset="1" stop-color="#fff" stop-opacity="0"/>
    </radialGradient>
    <radialGradient id="Degradado_sin_nombre_8" data-name="Degradado sin nombre 8" cx="575.93" cy="-16567.48" fx="575.93" fy="-16567.48" r="24.56" gradientTransform="translate(-1617.59 -16341.31) rotate(-5.84) scale(1 -1)" gradientUnits="userSpaceOnUse">
      <stop offset="0" stop-color="#fff"/>
      <stop offset=".03" stop-color="#fff" stop-opacity=".92"/>
      <stop offset=".09" stop-color="#fff" stop-opacity=".73"/>
      <stop offset=".17" stop-color="#fff" stop-opacity=".56"/>
      <stop offset=".25" stop-color="#fff" stop-opacity=".41"/>
      <stop offset=".33" stop-color="#fff" stop-opacity=".28"/>
      <stop offset=".42" stop-color="#fff" stop-opacity=".18"/>
      <stop offset=".52" stop-color="#fff" stop-opacity=".1"/>
      <stop offset=".63" stop-color="#fff" stop-opacity=".04"/>
      <stop offset=".77" stop-color="#fff" stop-opacity="0"/>
      <stop offset="1" stop-color="#fff" stop-opacity="0"/>
    </radialGradient>
    <radialGradient id="Degradado_sin_nombre_9" data-name="Degradado sin nombre 9" cx="465.89" cy="-16663.2" fx="465.89" fy="-16663.2" r="24.56" gradientTransform="translate(16718.47 -3839.79) rotate(77.62) scale(1 -1)" gradientUnits="userSpaceOnUse">
      <stop offset="0" stop-color="#fff"/>
      <stop offset=".03" stop-color="#fff" stop-opacity=".92"/>
      <stop offset=".09" stop-color="#fff" stop-opacity=".73"/>
      <stop offset=".17" stop-color="#fff" stop-opacity=".56"/>
      <stop offset=".25" stop-color="#fff" stop-opacity=".41"/>
      <stop offset=".33" stop-color="#fff" stop-opacity=".28"/>
      <stop offset=".42" stop-color="#fff" stop-opacity=".18"/>
      <stop offset=".52" stop-color="#fff" stop-opacity=".1"/>
      <stop offset=".63" stop-color="#fff" stop-opacity=".04"/>
      <stop offset=".77" stop-color="#fff" stop-opacity="0"/>
      <stop offset="1" stop-color="#fff" stop-opacity="0"/>
    </radialGradient>
    <radialGradient id="Degradado_sin_nombre_10" data-name="Degradado sin nombre 10" cx="446.3" cy="-16890.88" fx="446.3" fy="-16890.88" r="24.56" gradientTransform="translate(-1615.5 -16341.31) rotate(-5.83) scale(1 -1)" gradientUnits="userSpaceOnUse">
      <stop offset="0" stop-color="#fff"/>
      <stop offset=".03" stop-color="#fff" stop-opacity=".92"/>
      <stop offset=".09" stop-color="#fff" stop-opacity=".73"/>
      <stop offset=".17" stop-color="#fff" stop-opacity=".56"/>
      <stop offset=".25" stop-color="#fff" stop-opacity=".41"/>
      <stop offset=".33" stop-color="#fff" stop-opacity=".28"/>
      <stop offset=".42" stop-color="#fff" stop-opacity=".18"/>
      <stop offset=".52" stop-color="#fff" stop-opacity=".1"/>
      <stop offset=".63" stop-color="#fff" stop-opacity=".04"/>
      <stop offset=".77" stop-color="#fff" stop-opacity="0"/>
      <stop offset="1" stop-color="#fff" stop-opacity="0"/>
    </radialGradient>
    <radialGradient id="Degradado_sin_nombre_11" data-name="Degradado sin nombre 11" cx="569.26" cy="-16501.35" fx="569.26" fy="-16501.35" r="24.56" gradientTransform="translate(-1615.46 -16341.32) rotate(-5.83) scale(1 -1)" gradientUnits="userSpaceOnUse">
      <stop offset="0" stop-color="#fff"/>
      <stop offset=".03" stop-color="#fff" stop-opacity=".92"/>
      <stop offset=".09" stop-color="#fff" stop-opacity=".73"/>
      <stop offset=".17" stop-color="#fff" stop-opacity=".56"/>
      <stop offset=".25" stop-color="#fff" stop-opacity=".41"/>
      <stop offset=".33" stop-color="#fff" stop-opacity=".28"/>
      <stop offset=".42" stop-color="#fff" stop-opacity=".18"/>
      <stop offset=".52" stop-color="#fff" stop-opacity=".1"/>
      <stop offset=".63" stop-color="#fff" stop-opacity=".04"/>
      <stop offset=".77" stop-color="#fff" stop-opacity="0"/>
      <stop offset="1" stop-color="#fff" stop-opacity="0"/>
    </radialGradient>
    <radialGradient id="Degradado_sin_nombre_12" data-name="Degradado sin nombre 12" cx="618.44" cy="-16465.05" fx="618.44" fy="-16465.05" r="24.56" gradientTransform="translate(15079.17 -8021.93) rotate(63.11) scale(1 -1)" gradientUnits="userSpaceOnUse">
      <stop offset="0" stop-color="#fff"/>
      <stop offset=".03" stop-color="#fff" stop-opacity=".92"/>
      <stop offset=".09" stop-color="#fff" stop-opacity=".73"/>
      <stop offset=".17" stop-color="#fff" stop-opacity=".56"/>
      <stop offset=".25" stop-color="#fff" stop-opacity=".41"/>
      <stop offset=".33" stop-color="#fff" stop-opacity=".28"/>
      <stop offset=".42" stop-color="#fff" stop-opacity=".18"/>
      <stop offset=".52" stop-color="#fff" stop-opacity=".1"/>
      <stop offset=".63" stop-color="#fff" stop-opacity=".04"/>
      <stop offset=".77" stop-color="#fff" stop-opacity="0"/>
      <stop offset="1" stop-color="#fff" stop-opacity="0"/>
    </radialGradient>
    <radialGradient id="Degradado_sin_nombre_13" data-name="Degradado sin nombre 13" cx="544.54" cy="-16501.2" fx="544.54" fy="-16501.2" r="24.56" gradientTransform="translate(-1615.92 -16341.26) rotate(-5.83) scale(1 -1)" gradientUnits="userSpaceOnUse">
      <stop offset="0" stop-color="#fff"/>
      <stop offset=".03" stop-color="#fff" stop-opacity=".92"/>
      <stop offset=".09" stop-color="#fff" stop-opacity=".73"/>
      <stop offset=".17" stop-color="#fff" stop-opacity=".56"/>
      <stop offset=".25" stop-color="#fff" stop-opacity=".41"/>
      <stop offset=".33" stop-color="#fff" stop-opacity=".28"/>
      <stop offset=".42" stop-color="#fff" stop-opacity=".18"/>
      <stop offset=".52" stop-color="#fff" stop-opacity=".1"/>
      <stop offset=".63" stop-color="#fff" stop-opacity=".04"/>
      <stop offset=".77" stop-color="#fff" stop-opacity="0"/>
      <stop offset="1" stop-color="#fff" stop-opacity="0"/>
    </radialGradient>
    <radialGradient id="Degradado_sin_nombre_14" data-name="Degradado sin nombre 14" cx="520.6" cy="-16545.33" fx="520.6" fy="-16545.33" r="24.56" gradientTransform="translate(-1614.13 -16341.45) rotate(-5.83) scale(1 -1)" gradientUnits="userSpaceOnUse">
      <stop offset="0" stop-color="#fff"/>
      <stop offset=".03" stop-color="#fff" stop-opacity=".92"/>
      <stop offset=".09" stop-color="#fff" stop-opacity=".73"/>
      <stop offset=".17" stop-color="#fff" stop-opacity=".56"/>
      <stop offset=".25" stop-color="#fff" stop-opacity=".41"/>
      <stop offset=".33" stop-color="#fff" stop-opacity=".28"/>
      <stop offset=".42" stop-color="#fff" stop-opacity=".18"/>
      <stop offset=".52" stop-color="#fff" stop-opacity=".1"/>
      <stop offset=".63" stop-color="#fff" stop-opacity=".04"/>
      <stop offset=".77" stop-color="#fff" stop-opacity="0"/>
      <stop offset="1" stop-color="#fff" stop-opacity="0"/>
    </radialGradient>
    <radialGradient id="Degradado_sin_nombre_15" data-name="Degradado sin nombre 15" cx="470.44" cy="-16574.24" fx="470.44" fy="-16574.24" r="24.56" gradientTransform="translate(-1614.71 -16341.4) rotate(-5.83) scale(1 -1)" gradientUnits="userSpaceOnUse">
      <stop offset="0" stop-color="#fff"/>
      <stop offset=".03" stop-color="#fff" stop-opacity=".92"/>
      <stop offset=".09" stop-color="#fff" stop-opacity=".73"/>
      <stop offset=".17" stop-color="#fff" stop-opacity=".56"/>
      <stop offset=".25" stop-color="#fff" stop-opacity=".41"/>
      <stop offset=".33" stop-color="#fff" stop-opacity=".28"/>
      <stop offset=".42" stop-color="#fff" stop-opacity=".18"/>
      <stop offset=".52" stop-color="#fff" stop-opacity=".1"/>
      <stop offset=".63" stop-color="#fff" stop-opacity=".04"/>
      <stop offset=".77" stop-color="#fff" stop-opacity="0"/>
      <stop offset="1" stop-color="#fff" stop-opacity="0"/>
    </radialGradient>
    <linearGradient id="Degradado_sin_nombre_16" data-name="Degradado sin nombre 16" x1="1506.19" y1="133.69" x2="1837.5" y2="707.55" gradientTransform="translate(-1529.72 -366.13) rotate(5.83)" gradientUnits="userSpaceOnUse">
      <stop offset="0" stop-color="#fff"/>
      <stop offset=".03" stop-color="#fffdee" stop-opacity=".93"/>
      <stop offset=".14" stop-color="#fff9b7" stop-opacity=".72"/>
      <stop offset=".26" stop-color="#fff686" stop-opacity=".53"/>
      <stop offset=".37" stop-color="#fff35c" stop-opacity=".36"/>
      <stop offset=".49" stop-color="#fff13b" stop-opacity=".23"/>
      <stop offset=".61" stop-color="#ffef21" stop-opacity=".13"/>
      <stop offset=".73" stop-color="#ffee0e" stop-opacity=".06"/>
      <stop offset=".86" stop-color="#ffed03" stop-opacity="0"/>
      <stop offset="1" stop-color="#ffed00" stop-opacity="0"/>
    </linearGradient>
    <radialGradient id="Degradado_sin_nombre_17" data-name="Degradado sin nombre 17" cx="-3206.12" cy="-16213.15" fx="-3206.12" fy="-16213.15" r="24.56" gradientTransform="translate(16376.22 -2589.81) rotate(-88.24)" gradientUnits="userSpaceOnUse">
      <stop offset="0" stop-color="#fff"/>
      <stop offset=".03" stop-color="#fff" stop-opacity=".92"/>
      <stop offset=".09" stop-color="#fff" stop-opacity=".73"/>
      <stop offset=".17" stop-color="#fff" stop-opacity=".56"/>
      <stop offset=".25" stop-color="#fff" stop-opacity=".41"/>
      <stop offset=".33" stop-color="#fff" stop-opacity=".28"/>
      <stop offset=".42" stop-color="#fff" stop-opacity=".18"/>
      <stop offset=".52" stop-color="#fff" stop-opacity=".1"/>
      <stop offset=".63" stop-color="#fff" stop-opacity=".04"/>
      <stop offset=".77" stop-color="#fff" stop-opacity="0"/>
      <stop offset="1" stop-color="#fff" stop-opacity="0"/>
    </radialGradient>
    <radialGradient id="Degradado_sin_nombre_18" data-name="Degradado sin nombre 18" cx="-3211.16" cy="-16434.82" fx="-3211.16" fy="-16434.82" r="24.55" gradientTransform="translate(-1471.99 -16341.33) rotate(-174.17)" gradientUnits="userSpaceOnUse">
      <stop offset="0" stop-color="#fff"/>
      <stop offset=".03" stop-color="#fff" stop-opacity=".92"/>
      <stop offset=".09" stop-color="#fff" stop-opacity=".73"/>
      <stop offset=".17" stop-color="#fff" stop-opacity=".56"/>
      <stop offset=".25" stop-color="#fff" stop-opacity=".41"/>
      <stop offset=".33" stop-color="#fff" stop-opacity=".28"/>
      <stop offset=".42" stop-color="#fff" stop-opacity=".18"/>
      <stop offset=".52" stop-color="#fff" stop-opacity=".1"/>
      <stop offset=".63" stop-color="#fff" stop-opacity=".04"/>
      <stop offset=".77" stop-color="#fff" stop-opacity="0"/>
      <stop offset="1" stop-color="#fff" stop-opacity="0"/>
    </radialGradient>
    <radialGradient id="Degradado_sin_nombre_19" data-name="Degradado sin nombre 19" cx="-3157.57" cy="-16314.78" fx="-3157.57" fy="-16314.78" r="24.54" gradientTransform="translate(12887.08 -10296.09) rotate(-118.27)" gradientUnits="userSpaceOnUse">
      <stop offset="0" stop-color="#fff"/>
      <stop offset=".03" stop-color="#fff" stop-opacity=".92"/>
      <stop offset=".09" stop-color="#fff" stop-opacity=".73"/>
      <stop offset=".17" stop-color="#fff" stop-opacity=".56"/>
      <stop offset=".25" stop-color="#fff" stop-opacity=".41"/>
      <stop offset=".33" stop-color="#fff" stop-opacity=".28"/>
      <stop offset=".42" stop-color="#fff" stop-opacity=".18"/>
      <stop offset=".52" stop-color="#fff" stop-opacity=".1"/>
      <stop offset=".63" stop-color="#fff" stop-opacity=".04"/>
      <stop offset=".77" stop-color="#fff" stop-opacity="0"/>
      <stop offset="1" stop-color="#fff" stop-opacity="0"/>
    </radialGradient>
    <radialGradient id="Degradado_sin_nombre_20" data-name="Degradado sin nombre 20" cx="-3405.31" cy="-16479.92" fx="-3405.31" fy="-16479.92" r="24.56" gradientTransform="translate(-1472.06 -16341.33) rotate(-174.17)" gradientUnits="userSpaceOnUse">
      <stop offset="0" stop-color="#fff"/>
      <stop offset=".03" stop-color="#fff" stop-opacity=".92"/>
      <stop offset=".09" stop-color="#fff" stop-opacity=".73"/>
      <stop offset=".17" stop-color="#fff" stop-opacity=".56"/>
      <stop offset=".25" stop-color="#fff" stop-opacity=".41"/>
      <stop offset=".33" stop-color="#fff" stop-opacity=".28"/>
      <stop offset=".42" stop-color="#fff" stop-opacity=".18"/>
      <stop offset=".52" stop-color="#fff" stop-opacity=".1"/>
      <stop offset=".63" stop-color="#fff" stop-opacity=".04"/>
      <stop offset=".77" stop-color="#fff" stop-opacity="0"/>
      <stop offset="1" stop-color="#fff" stop-opacity="0"/>
    </radialGradient>
    <radialGradient id="Degradado_sin_nombre_21" data-name="Degradado sin nombre 21" cx="-3353.98" cy="-16392.54" fx="-3353.98" fy="-16392.54" r="24.56" gradientTransform="translate(9026.92 -13906.99) rotate(-136.6)" gradientUnits="userSpaceOnUse">
      <stop offset="0" stop-color="#fff"/>
      <stop offset=".03" stop-color="#fff" stop-opacity=".92"/>
      <stop offset=".09" stop-color="#fff" stop-opacity=".73"/>
      <stop offset=".17" stop-color="#fff" stop-opacity=".56"/>
      <stop offset=".25" stop-color="#fff" stop-opacity=".41"/>
      <stop offset=".33" stop-color="#fff" stop-opacity=".28"/>
      <stop offset=".42" stop-color="#fff" stop-opacity=".18"/>
      <stop offset=".52" stop-color="#fff" stop-opacity=".1"/>
      <stop offset=".63" stop-color="#fff" stop-opacity=".04"/>
      <stop offset=".77" stop-color="#fff" stop-opacity="0"/>
      <stop offset="1" stop-color="#fff" stop-opacity="0"/>
    </radialGradient>
    <radialGradient id="Degradado_sin_nombre_22" data-name="Degradado sin nombre 22" cx="-3135.6" cy="-16188.25" fx="-3135.6" fy="-16188.25" r="24.56" gradientTransform="translate(-1473.1 -16341.4) rotate(-174.17)" gradientUnits="userSpaceOnUse">
      <stop offset="0" stop-color="#fff"/>
      <stop offset=".03" stop-color="#fff" stop-opacity=".92"/>
      <stop offset=".09" stop-color="#fff" stop-opacity=".73"/>
      <stop offset=".17" stop-color="#fff" stop-opacity=".56"/>
      <stop offset=".25" stop-color="#fff" stop-opacity=".41"/>
      <stop offset=".33" stop-color="#fff" stop-opacity=".28"/>
      <stop offset=".42" stop-color="#fff" stop-opacity=".18"/>
      <stop offset=".52" stop-color="#fff" stop-opacity=".1"/>
      <stop offset=".63" stop-color="#fff" stop-opacity=".04"/>
      <stop offset=".77" stop-color="#fff" stop-opacity="0"/>
      <stop offset="1" stop-color="#fff" stop-opacity="0"/>
    </radialGradient>
    <radialGradient id="Degradado_sin_nombre_23" data-name="Degradado sin nombre 23" cx="-3245.87" cy="-16284.16" fx="-3245.87" fy="-16284.16" r="24.56" gradientTransform="translate(-1470.94 -16341.26) rotate(-174.17)" gradientUnits="userSpaceOnUse">
      <stop offset="0" stop-color="#fff"/>
      <stop offset=".03" stop-color="#fff" stop-opacity=".92"/>
      <stop offset=".09" stop-color="#fff" stop-opacity=".73"/>
      <stop offset=".17" stop-color="#fff" stop-opacity=".56"/>
      <stop offset=".25" stop-color="#fff" stop-opacity=".41"/>
      <stop offset=".33" stop-color="#fff" stop-opacity=".28"/>
      <stop offset=".42" stop-color="#fff" stop-opacity=".18"/>
      <stop offset=".52" stop-color="#fff" stop-opacity=".1"/>
      <stop offset=".63" stop-color="#fff" stop-opacity=".04"/>
      <stop offset=".77" stop-color="#fff" stop-opacity="0"/>
      <stop offset="1" stop-color="#fff" stop-opacity="0"/>
    </radialGradient>
    <radialGradient id="Degradado_sin_nombre_24" data-name="Degradado sin nombre 24" cx="-3265.07" cy="-16511.67" fx="-3265.07" fy="-16511.67" r="24.56" gradientTransform="translate(-1470.44 -16341.44) rotate(-174.16)" gradientUnits="userSpaceOnUse">
      <stop offset="0" stop-color="#fff"/>
      <stop offset=".03" stop-color="#fff" stop-opacity=".92"/>
      <stop offset=".09" stop-color="#fff" stop-opacity=".73"/>
      <stop offset=".17" stop-color="#fff" stop-opacity=".56"/>
      <stop offset=".25" stop-color="#fff" stop-opacity=".41"/>
      <stop offset=".33" stop-color="#fff" stop-opacity=".28"/>
      <stop offset=".42" stop-color="#fff" stop-opacity=".18"/>
      <stop offset=".52" stop-color="#fff" stop-opacity=".1"/>
      <stop offset=".63" stop-color="#fff" stop-opacity=".04"/>
      <stop offset=".77" stop-color="#fff" stop-opacity="0"/>
      <stop offset="1" stop-color="#fff" stop-opacity="0"/>
    </radialGradient>
    <radialGradient id="Degradado_sin_nombre_25" data-name="Degradado sin nombre 25" cx="-3142.55" cy="-16122.32" fx="-3142.55" fy="-16122.32" r="24.56" gradientTransform="translate(-1471.82 -16341.32) rotate(-174.17)" gradientUnits="userSpaceOnUse">
      <stop offset="0" stop-color="#fff"/>
      <stop offset=".03" stop-color="#fff" stop-opacity=".92"/>
      <stop offset=".09" stop-color="#fff" stop-opacity=".73"/>
      <stop offset=".17" stop-color="#fff" stop-opacity=".56"/>
      <stop offset=".25" stop-color="#fff" stop-opacity=".41"/>
      <stop offset=".33" stop-color="#fff" stop-opacity=".28"/>
      <stop offset=".42" stop-color="#fff" stop-opacity=".18"/>
      <stop offset=".52" stop-color="#fff" stop-opacity=".1"/>
      <stop offset=".63" stop-color="#fff" stop-opacity=".04"/>
      <stop offset=".77" stop-color="#fff" stop-opacity="0"/>
      <stop offset="1" stop-color="#fff" stop-opacity="0"/>
    </radialGradient>
    <radialGradient id="Degradado_sin_nombre_27" data-name="Degradado sin nombre 27" cx="-3166.72" cy="-16122.19" fx="-3166.72" fy="-16122.19" r="24.56" gradientTransform="translate(15949.18 -4094.44) rotate(-93.39)" gradientUnits="userSpaceOnUse">
      <stop offset="0" stop-color="#fff"/>
      <stop offset=".03" stop-color="#fff" stop-opacity=".92"/>
      <stop offset=".09" stop-color="#fff" stop-opacity=".73"/>
      <stop offset=".17" stop-color="#fff" stop-opacity=".56"/>
      <stop offset=".25" stop-color="#fff" stop-opacity=".41"/>
      <stop offset=".33" stop-color="#fff" stop-opacity=".28"/>
      <stop offset=".42" stop-color="#fff" stop-opacity=".18"/>
      <stop offset=".52" stop-color="#fff" stop-opacity=".1"/>
      <stop offset=".63" stop-color="#fff" stop-opacity=".04"/>
      <stop offset=".77" stop-color="#fff" stop-opacity="0"/>
      <stop offset="1" stop-color="#fff" stop-opacity="0"/>
    </radialGradient>
    <radialGradient id="Degradado_sin_nombre_28" data-name="Degradado sin nombre 28" cx="-3191.63" cy="-16166.32" fx="-3191.63" fy="-16166.32" r="24.56" gradientTransform="translate(16319.32 -2624.9) rotate(-88.24)" gradientUnits="userSpaceOnUse">
      <stop offset="0" stop-color="#fff"/>
      <stop offset=".03" stop-color="#fff" stop-opacity=".92"/>
      <stop offset=".09" stop-color="#fff" stop-opacity=".73"/>
      <stop offset=".17" stop-color="#fff" stop-opacity=".56"/>
      <stop offset=".25" stop-color="#fff" stop-opacity=".41"/>
      <stop offset=".33" stop-color="#fff" stop-opacity=".28"/>
      <stop offset=".42" stop-color="#fff" stop-opacity=".18"/>
      <stop offset=".52" stop-color="#fff" stop-opacity=".1"/>
      <stop offset=".63" stop-color="#fff" stop-opacity=".04"/>
      <stop offset=".77" stop-color="#fff" stop-opacity="0"/>
      <stop offset="1" stop-color="#fff" stop-opacity="0"/>
    </radialGradient>
    <radialGradient id="Degradado_sin_nombre_29" data-name="Degradado sin nombre 29" cx="-3241.94" cy="-16195.21" fx="-3241.94" fy="-16195.21" r="24.56" gradientTransform="translate(-1470.9 -16341.26) rotate(-174.17)" gradientUnits="userSpaceOnUse">
      <stop offset="0" stop-color="#fff"/>
      <stop offset=".03" stop-color="#fff" stop-opacity=".92"/>
      <stop offset=".09" stop-color="#fff" stop-opacity=".73"/>
      <stop offset=".17" stop-color="#fff" stop-opacity=".56"/>
      <stop offset=".25" stop-color="#fff" stop-opacity=".41"/>
      <stop offset=".33" stop-color="#fff" stop-opacity=".28"/>
      <stop offset=".42" stop-color="#fff" stop-opacity=".18"/>
      <stop offset=".52" stop-color="#fff" stop-opacity=".1"/>
      <stop offset=".63" stop-color="#fff" stop-opacity=".04"/>
      <stop offset=".77" stop-color="#fff" stop-opacity="0"/>
      <stop offset="1" stop-color="#fff" stop-opacity="0"/>
    </radialGradient>
  </defs>
  <g class="cls-12">
    <g id="Capa_1-2" data-name="Capa 1-2">
      <g class="cls-41">
        <g>
          <rect x="-29.62" y="-9.5" width="718.5" height="718.5"/>
          <ellipse class="cls-20" cx="337.04" cy="322.91" rx="451.82" ry="462.86"/>
          <g>
            <rect class="cls-37" x="-94.7" y="-19.45" width="109.22" height="54.03"/>
            <rect class="cls-37" x="14.53" y="-19.45" width="109.22" height="54.03"/>
            <rect class="cls-37" x="123.75" y="-19.45" width="109.22" height="54.03"/>
            <rect class="cls-37" x="232.99" y="-19.45" width="109.22" height="54.03"/>
            <rect class="cls-37" x="342.21" y="-19.45" width="109.22" height="54.03"/>
            <rect class="cls-37" x="451.44" y="-19.45" width="109.22" height="54.03"/>
            <rect class="cls-37" x="560.67" y="-19.45" width="109.22" height="54.03"/>
            <rect class="cls-37" x="669.89" y="-19.45" width="109.22" height="54.03"/>
            <rect class="cls-37" x="-45.25" y="34.59" width="109.22" height="54.03"/>
            <rect class="cls-37" x="63.97" y="34.59" width="109.22" height="54.03"/>
            <rect class="cls-37" x="173.19" y="34.59" width="109.22" height="54.03"/>
            <rect class="cls-37" x="282.43" y="34.59" width="109.22" height="54.03"/>
            <rect class="cls-37" x="391.65" y="34.59" width="109.22" height="54.03"/>
            <rect class="cls-37" x="500.87" y="34.59" width="109.22" height="54.03"/>
            <rect class="cls-37" x="610.11" y="34.59" width="109.22" height="54.03"/>
            <rect class="cls-37" x="-94.7" y="89.64" width="109.22" height="54.03"/>
            <rect class="cls-37" x="14.53" y="89.64" width="109.22" height="54.03"/>
            <rect class="cls-37" x="123.75" y="89.64" width="109.22" height="54.03"/>
            <rect class="cls-37" x="232.99" y="89.64" width="109.22" height="54.03"/>
            <rect class="cls-37" x="342.21" y="89.64" width="109.22" height="54.03"/>
            <rect class="cls-37" x="451.44" y="89.64" width="109.22" height="54.03"/>
            <rect class="cls-37" x="560.67" y="89.64" width="109.22" height="54.03"/>
            <rect class="cls-37" x="669.89" y="89.64" width="109.22" height="54.03"/>
            <rect class="cls-37" x="-45.25" y="143.69" width="109.22" height="54.03"/>
            <rect class="cls-37" x="63.97" y="143.69" width="109.22" height="54.03"/>
            <rect class="cls-37" x="173.19" y="143.69" width="109.22" height="54.03"/>
            <rect class="cls-37" x="282.43" y="143.69" width="109.22" height="54.03"/>
            <rect class="cls-37" x="391.65" y="143.69" width="109.22" height="54.03"/>
            <rect class="cls-37" x="500.87" y="143.69" width="109.22" height="54.03"/>
            <rect class="cls-37" x="610.11" y="143.69" width="109.22" height="54.03"/>
            <rect class="cls-37" x="-94.7" y="198.74" width="109.22" height="54.03"/>
            <rect class="cls-37" x="14.53" y="198.74" width="109.22" height="54.03"/>
            <rect class="cls-37" x="123.75" y="198.74" width="109.22" height="54.03"/>
            <rect class="cls-37" x="232.99" y="198.74" width="109.22" height="54.03"/>
            <rect class="cls-37" x="342.21" y="198.74" width="109.22" height="54.03"/>
            <rect class="cls-37" x="451.44" y="198.74" width="109.22" height="54.03"/>
            <rect class="cls-37" x="560.67" y="198.74" width="109.22" height="54.03"/>
            <rect class="cls-37" x="669.89" y="198.74" width="109.22" height="54.03"/>
            <rect class="cls-37" x="-45.25" y="252.78" width="109.22" height="54.03"/>
            <rect class="cls-37" x="63.97" y="252.78" width="109.22" height="54.03"/>
            <rect class="cls-37" x="173.19" y="252.78" width="109.22" height="54.03"/>
            <rect class="cls-37" x="282.43" y="252.78" width="109.22" height="54.03"/>
            <rect class="cls-37" x="391.65" y="252.78" width="109.22" height="54.03"/>
            <rect class="cls-37" x="500.87" y="252.78" width="109.22" height="54.03"/>
            <rect class="cls-37" x="610.11" y="252.78" width="109.22" height="54.03"/>
            <rect class="cls-37" x="-94.7" y="307.83" width="109.22" height="54.03"/>
            <rect class="cls-37" x="14.53" y="307.83" width="109.22" height="54.03"/>
            <rect class="cls-37" x="123.75" y="307.83" width="109.22" height="54.03"/>
            <rect class="cls-37" x="232.99" y="307.83" width="109.22" height="54.03"/>
            <rect class="cls-37" x="342.21" y="307.83" width="109.22" height="54.03"/>
            <rect class="cls-37" x="451.44" y="307.83" width="109.22" height="54.03"/>
            <rect class="cls-37" x="560.67" y="307.83" width="109.22" height="54.03"/>
            <rect class="cls-37" x="669.89" y="307.83" width="109.22" height="54.03"/>
            <rect class="cls-37" x="-45.25" y="361.88" width="109.22" height="54.03"/>
            <rect class="cls-37" x="63.97" y="361.88" width="109.22" height="54.03"/>
            <rect class="cls-37" x="173.19" y="361.88" width="109.22" height="54.03"/>
            <rect class="cls-37" x="282.43" y="361.88" width="109.22" height="54.03"/>
            <rect class="cls-37" x="391.65" y="361.88" width="109.22" height="54.03"/>
            <rect class="cls-37" x="500.87" y="361.88" width="109.22" height="54.03"/>
            <rect class="cls-37" x="610.11" y="361.88" width="109.22" height="54.03"/>
            <rect class="cls-37" x="-94.7" y="416.94" width="109.22" height="54.03"/>
            <rect class="cls-37" x="14.53" y="416.94" width="109.22" height="54.03"/>
            <rect class="cls-37" x="123.75" y="416.94" width="109.22" height="54.03"/>
            <rect class="cls-37" x="232.99" y="416.94" width="109.22" height="54.03"/>
            <rect class="cls-37" x="342.21" y="416.94" width="109.22" height="54.03"/>
            <rect class="cls-37" x="451.44" y="416.94" width="109.22" height="54.03"/>
            <rect class="cls-37" x="560.67" y="416.94" width="109.22" height="54.03"/>
            <rect class="cls-37" x="669.89" y="416.94" width="109.22" height="54.03"/>
            <rect class="cls-37" x="-45.25" y="470.97" width="109.22" height="54.03"/>
            <rect class="cls-37" x="63.97" y="470.97" width="109.22" height="54.03"/>
            <rect class="cls-37" x="173.19" y="470.97" width="109.22" height="54.03"/>
            <rect class="cls-37" x="282.43" y="470.97" width="109.22" height="54.03"/>
            <rect class="cls-37" x="391.65" y="470.97" width="109.22" height="54.03"/>
            <rect class="cls-37" x="500.87" y="470.97" width="109.22" height="54.03"/>
            <rect class="cls-37" x="610.11" y="470.97" width="109.22" height="54.03"/>
            <rect class="cls-37" x="-94.7" y="526.02" width="109.22" height="54.03"/>
            <rect class="cls-37" x="14.53" y="526.02" width="109.22" height="54.03"/>
            <rect class="cls-37" x="123.75" y="526.02" width="109.22" height="54.03"/>
            <rect class="cls-37" x="232.99" y="526.02" width="109.22" height="54.03"/>
            <rect class="cls-37" x="342.21" y="526.02" width="109.22" height="54.03"/>
            <rect class="cls-37" x="451.44" y="526.02" width="109.22" height="54.03"/>
            <rect class="cls-37" x="560.67" y="526.02" width="109.22" height="54.03"/>
            <rect class="cls-37" x="669.89" y="526.02" width="109.22" height="54.03"/>
            <rect class="cls-37" x="-45.25" y="580.06" width="109.22" height="54.03"/>
            <rect class="cls-37" x="63.97" y="580.06" width="109.22" height="54.03"/>
            <rect class="cls-37" x="173.19" y="580.06" width="109.22" height="54.03"/>
            <rect class="cls-37" x="282.43" y="580.06" width="109.22" height="54.03"/>
            <rect class="cls-37" x="391.65" y="580.06" width="109.22" height="54.03"/>
            <rect class="cls-37" x="500.87" y="580.06" width="109.22" height="54.03"/>
            <rect class="cls-37" x="610.11" y="580.06" width="109.22" height="54.03"/>
            <rect class="cls-37" x="-94.7" y="635.11" width="109.22" height="54.03"/>
            <rect class="cls-37" x="14.53" y="635.11" width="109.22" height="54.03"/>
            <rect class="cls-37" x="123.75" y="635.11" width="109.22" height="54.03"/>
            <rect class="cls-37" x="232.99" y="635.11" width="109.22" height="54.03"/>
            <rect class="cls-37" x="342.21" y="635.11" width="109.22" height="54.03"/>
            <rect class="cls-37" x="451.44" y="635.11" width="109.22" height="54.03"/>
            <rect class="cls-37" x="560.67" y="635.11" width="109.22" height="54.03"/>
            <rect class="cls-37" x="669.89" y="635.11" width="109.22" height="54.03"/>
            <rect class="cls-37" x="-45.25" y="689.16" width="109.22" height="54.03"/>
            <rect class="cls-37" x="63.97" y="689.16" width="109.22" height="54.03"/>
            <rect class="cls-37" x="173.19" y="689.16" width="109.22" height="54.03"/>
            <rect class="cls-37" x="282.43" y="689.16" width="109.22" height="54.03"/>
            <rect class="cls-37" x="391.65" y="689.16" width="109.22" height="54.03"/>
            <rect class="cls-37" x="500.87" y="689.16" width="109.22" height="54.03"/>
            <rect class="cls-37" x="610.11" y="689.16" width="109.22" height="54.03"/>
          </g>
          <rect class="cls-34" x="-29.62" y="-9.5" width="718.5" height="718.5"/>
        </g>
      </g>
      <g class="cls-39">
        <g>
          <g>
            <polygon class="cls-7" points="703.22 -73.68 583.31 560.43 266.1 456.45 638.88 -67.11 703.22 -73.68"/>
            <circle class="cls-30" cx="573.56" cy="115.23" r="24.56" transform="translate(156.37 525.35) rotate(-55.87)"/>
            <circle class="cls-23" cx="590.97" cy="336.26" r="24.56"/>
            <circle class="cls-15" cx="632.5" cy="211.34" r="24.56"/>
            <circle class="cls-21" cx="402.43" cy="400.82" r="24.56"/>
            <circle class="cls-6" cx="444.73" cy="308.68" r="24.56"/>
            <circle class="cls-25" cx="640.73" cy="83.24" r="24.56"/>
            <circle class="cls-3" cx="541.49" cy="189.86" r="24.56" transform="translate(291.11 706.16) rotate(-83.45)"/>
            <circle class="cls-10" cx="544.81" cy="418.42" r="24.56"/>
            <path class="cls-29" d="M652,15.89c1.38,13.5-8.45,25.55-21.93,26.93-13.5,1.38-25.55-8.45-26.93-21.94s8.45-25.55,21.94-26.93c13.5-1.38,25.55,8.45,26.93,21.94,0,0-.01,0-.01,0Z"/>
            <circle class="cls-26" cx="672.74" cy="-22.72" r="24.56" transform="translate(452.2 613.24) rotate(-68.94)"/>
            <circle class="cls-27" cx="603.08" cy="20.74" r="24.56"/>
            <circle class="cls-22" cx="583.19" cy="67.18" r="24.56"/>
            <circle class="cls-5" cx="536.42" cy="100.98" r="24.56"/>
          </g>
          <g>
            <polygon class="cls-17" points="-59.28 -73.68 60.63 560.43 377.84 456.45 5.07 -67.11 -59.28 -73.68"/>
            <circle class="cls-16" cx="70.43" cy="115.21" r="24.56" transform="translate(-49.48 177.29) rotate(-85.93)"/>
            <circle class="cls-1" cx="52.99" cy="336.26" r="24.56"/>
            <circle class="cls-2" cx="11.43" cy="211.41" r="24.56" transform="translate(-170.04 102.35) rotate(-55.9)"/>
            <circle class="cls-24" cx="241.55" cy="400.87" r="24.56"/>
            <circle class="cls-18" cx="199.21" cy="308.71" r="24.56" transform="translate(-146.92 185.49) rotate(-37.57)"/>
            <circle class="cls-19" cx="3.2" cy="83.29" r="24.56"/>
            <circle class="cls-13" cx="102.41" cy="189.88" r="24.56"/>
            <circle class="cls-11" cx="99.16" cy="418.45" r="24.56"/>
            <path class="cls-4" d="M-8.04,15.89c-1.38,13.5,8.45,25.55,21.93,26.93,13.5,1.38,25.55-8.45,26.93-21.94,1.38-13.5-8.45-25.55-21.94-26.93C5.39-7.42-6.67,2.4-8.04,15.89Z"/>
            <circle class="cls-8" cx="40.83" cy="20.71" r="24.56" transform="translate(13.84 57.7) rotate(-80.78)"/>
            <circle class="cls-14" cx="60.78" cy="67.14" r="24.56" transform="translate(-10.5 123) rotate(-85.93)"/>
            <circle class="cls-9" cx="107.55" cy="100.98" r="24.56"/>
          </g>
        </g>
      </g>
    </g>
  </g>
  <g>
    <g>
      <g>
        <path d="M144.56,471.06c-1.34,0-2.49-1.01-2.65-2.37l-9.42-80.17c-.08-.71.12-1.42.56-1.97.44-.56,1.09-.91,1.8-1.01l40.87-4.81c8.74-1.03,15.94.08,21.41,3.3,5.84,3.43,9.4,9.25,10.29,16.8.92,7.87-1.72,14.76-7.09,19.18,7.32,3.07,12.31,9.62,13.3,17.96,1.84,15.66-7.9,25.9-26.72,28.11h0l-42.01,4.93c-.11,0-.21.01-.32.01v.04ZM138.11,390.55l8.81,74.84,39.34-4.62h0c11.09-1.3,23.89-6.21,22.02-22.16-.97-8.23-6.8-13.98-15.2-14.99-1.22-.15-2.18-1.11-2.35-2.33-.15-1.22.55-2.39,1.69-2.83,6.97-2.69,10.58-9.05,9.64-17-.7-5.9-3.28-10.21-7.68-12.8-4.37-2.57-10.62-3.47-18.06-2.59l-38.22,4.49h0ZM167.33,447.95c-1.34,0-2.49-1.01-2.65-2.37l-1.33-11.33c-.08-.71.12-1.42.56-1.97.44-.56,1.09-.92,1.8-1.01l11.43-1.34c2.91-.34,5.27.09,7.04,1.3,1.86,1.27,2.98,3.31,3.3,6.03.44,3.74-.66,8.4-8.38,9.3l-11.43,1.34c-.11,0-.21.01-.32.01v.03ZM168.98,436.29l.71,5.99,8.78-1.03c4.02-.47,3.87-1.74,3.67-3.35-.2-1.69-.8-2.1-1.01-2.24-.66-.44-1.82-.59-3.38-.4h0l-8.78,1.03ZM163.96,419.19c-.6,0-1.18-.2-1.66-.58-.56-.44-.91-1.09-1.01-1.8l-1.33-11.33c-.17-1.47.88-2.8,2.35-2.98l9.73-1.14h0c2.95-.35,5.25.05,7.01,1.25,1.88,1.26,2.99,3.31,3.32,6.09.36,3.07-.25,8.35-8.38,9.3l-9.73,1.14c-.11,0-.21.01-.31.01v.03ZM165.59,407.54l.71,5.99,7.08-.83c4.02-.47,3.86-1.88,3.69-3.35-.2-1.74-.79-2.14-.99-2.27-.63-.43-1.81-.55-3.39-.38l-7.08.83h-.01Z"/>
        <path d="M222.01,461.95c-1.34,0-2.49-1.01-2.65-2.37l-9.42-80.16c-.08-.71.12-1.42.56-1.97.44-.56,1.09-.92,1.8-1.01l25.13-2.96c1.47-.17,2.8.88,2.98,2.35l6.88,58.49,21.57-2.53c1.47-.19,2.8.88,2.98,2.35l2.24,19.02c.08.71-.12,1.42-.56,1.97s-1.09.92-1.8,1.01l-49.37,5.8c-.11,0-.21.01-.32.01h0ZM215.56,381.45l8.81,74.84,44.05-5.17-1.61-13.7-21.57,2.53c-1.47.19-2.8-.88-2.98-2.35l-6.88-58.49-19.81,2.33h-.01Z"/>
        <path d="M273.65,455.88c-.76,0-1.49-.32-2-.9-.58-.66-.8-1.55-.6-2.4l19.91-83.62c.25-1.1,1.18-1.92,2.29-2.04l28.98-3.4c1.13-.13,2.2.46,2.71,1.46l38.65,76.73c.39.78.38,1.7-.03,2.48-.42.78-1.18,1.29-2.05,1.39l-26.5,3.11c-1.15.12-2.27-.48-2.75-1.54l-4.57-9.89-22.87,2.69-2.16,10.67c-.23,1.14-1.17,2-2.32,2.13l-26.38,3.1c-.11,0-.21.01-.31.01h0ZM295.73,372.03l-18.58,78.06,20.64-2.43,2.16-10.67c.23-1.14,1.17-2,2.32-2.13l26.73-3.14c1.14-.13,2.27.48,2.75,1.54l4.57,9.89,20.76-2.44-36.07-71.64-25.27,2.98v-.03ZM306.46,420.57c-.74,0-1.46-.31-1.97-.86-.58-.63-.83-1.5-.66-2.35l4.62-23.16c.23-1.14,1.17-2,2.32-2.13,1.15-.13,2.27.48,2.75,1.54l9.87,21.45c.36.78.32,1.69-.09,2.43-.42.75-1.17,1.25-2.02,1.35l-14.49,1.7c-.11,0-.21.01-.31.01h-.01ZM312.09,403.34l-2.29,11.45,7.17-.84-4.88-10.6Z"/>
        <path d="M398.35,441.45c-10.09,0-19.05-3.06-26.17-8.98-8.34-6.94-13.51-17.27-15-29.84-1.47-12.59,1.17-23.82,7.67-32.51,6.66-8.91,16.88-14.41,29.52-15.9,21.96-2.57,39.37,8.5,45.43,28.93.23.76.11,1.58-.34,2.24-.43.66-1.14,1.1-1.93,1.19l-26.5,3.11c-1.05.12-2.08-.38-2.61-1.29-2.44-4.1-6.5-6.13-11.17-5.59-6.92.82-10.39,6.86-9.29,16.18.55,4.65,2.08,8.38,4.42,10.78,2.21,2.27,5.03,3.22,8.36,2.82,4.65-.55,8.14-3.47,9.57-8.02.32-1.01,1.19-1.74,2.25-1.86l26.5-3.11c.78-.09,1.57.16,2.14.71.58.54.88,1.31.84,2.1-1.17,21.27-15.54,36.1-37.49,38.67-2.12.25-4.2.38-6.23.38h.01ZM395,359.55c-11.15,1.31-20.09,6.07-25.86,13.78-5.66,7.56-7.95,17.48-6.64,28.67,1.31,11.19,5.84,20.31,13.11,26.35,7.39,6.15,17.19,8.71,28.34,7.4,18.07-2.12,30.24-13.67,32.47-30.44l-21.57,2.53c-2.37,5.63-7.29,9.36-13.45,10.08-5,.59-9.44-.92-12.83-4.38-3.18-3.24-5.23-8.06-5.91-13.9-1.45-12.28,4.05-20.97,13.98-22.13,6.15-.72,11.8,1.76,15.42,6.68l21.57-2.53c-6.05-15.8-20.56-24.21-38.65-22.09h.01Z"/>
        <path d="M452.11,434.9c-.6,0-1.18-.2-1.66-.58-.56-.44-.92-1.09-1.01-1.8l-9.42-80.16c-.08-.71.12-1.42.56-1.97.44-.56,1.09-.92,1.8-1.01l25.13-2.96c1.47-.17,2.8.88,2.98,2.35l2.95,25.11,15-28.74c.42-.79,1.18-1.31,2.06-1.42l28.42-3.34c.99-.12,1.98.34,2.53,1.17.56.83.6,1.92.12,2.79l-22.19,39.96,33.08,36.9c.67.75.87,1.8.51,2.73-.35.94-1.21,1.6-2.2,1.72l-29.89,3.51c-.88.09-1.77-.24-2.35-.92l-21.69-25.34,3.06,26.02c.17,1.47-.88,2.8-2.35,2.98l-25.13,2.96c-.11,0-.21.01-.31.01v.03ZM445.64,354.4l8.81,74.84,19.81-2.33-3.78-32.1c-.13-1.17.51-2.29,1.58-2.77,1.09-.47,2.35-.19,3.11.71l26.49,30.94,23.34-2.75-30.9-34.48c-.76-.84-.9-2.09-.35-3.1l20.58-37.06-21.81,2.56-18.36,35.19c-.55,1.05-1.7,1.61-2.86,1.39-1.15-.21-2.04-1.15-2.17-2.32l-3.66-31.09-19.81,2.33v.04Z"/>
      </g>
      <g>
        <path d="M224.02,490.22c-5.38.68-10.29.76-15.01.6-3.16,6.97-5.75,20.09-7.27,27.95l-.75,4.36,9.58-1.22c1.29-.16,2.4.79,2.56,2.08.15,1.18-.68,2.39-1.97,2.55l-11.09,1.42c-6.17,27.92-8.46,39.14-26.43,41.45-12.05,1.54-19.93-6.21-21.1-17-1.02-13.11,8.31-24.03,20.34-25.79,1.29-.16,2.4.79,2.55,1.97.16,1.29-.67,2.49-1.96,2.65-9.58,1.22-17.67,10.68-16.39,20.7,1.09,8.5,6.84,14.12,15.98,12.95,14.96-1.9,16.43-11.84,22.17-36.3l-6.25.79c-1.29.16-2.4-.79-2.55-1.97-.16-1.29.67-2.49,1.96-2.65l7.75-.99,1.11-5.83c1.35-7.39,4.06-21.3,6.89-27.47-4.32-.43-8.35-1.13-12.25-1.72-7.71-1.21-14.85-2.37-22.28-1.42-7.21.92-13.19,8.9-12.25,16.22.99,7.75,6.61,10.64,13.93,9.71,3.12-.4,6.46-1.7,9.5-3.51.31-.15.62-.29,1.05-.35,1.5-.19,2.33,1.13,2.44,1.98s-.23,1.68-1.03,2.21c-3.55,2.2-7.63,3.71-11.5,4.2-10.44,1.33-17.71-4.2-18.9-13.55-1.34-10.44,6.72-20.21,16.19-21.43,7.96-1.02,15.44.11,23.59,1.47,4.34.64,9.03,1.37,14.02,1.82,3.99-5.54,10.32-9.09,17.19-10.17,5.5-.7,10.19.99,10.74,5.29.62,4.84-4.75,8.27-10.55,9.01h0ZM224.41,480.43c-4.93.74-8.49,2.95-11.93,5.9,3.5,0,7.09-.13,10.97-.63,3.34-.43,6.74-2.06,6.49-3.99-.16-1.29-3.36-1.54-5.52-1.26h0Z"/>
        <path d="M270.42,527.07c.04.32-.03.66-.09.99-4.95,16.93-9.49,24.18-16.81,25.12h-.11c-5.05.66-8.12-2.77-8.79-8.06-.28-2.16-.23-4.34.19-7.13.42-3.55,3.32-18.47,3.99-20.97-8.53-1.65-9.76-1.93-12.28-2.8-.27,1.34-.83,2.95-7.04,22.88-.32.91-1.02,1.45-1.77,1.54-.43.05-.76,0-1.1-.08-.8-.34-1.45-1.02-1.55-1.88-.04-.32.03-.66.09-.99l6.22-19.83.88-3.39c-3.51-1.85-6.14-4.36-6.65-8.34-.56-4.41,2.23-7.4,5.67-7.83,3.87-.5,6.6,2,7.14,6.3.21,1.73-.09,2.75-.84,7.1,3.2,1.13,7.01,1.84,10.28,2.52,1.57.24,3.02.5,4.25.76,1.23.28,1.96,1.61,1.69,2.96-.95,3.73-4.14,19.79-4.45,22.56-.36,2.35-.34,4.2-.21,6.05.35,2.69,1.43,4.41,3.81,4.12,5.28-.67,8.59-7.23,12.96-21.89.32-.91,1.01-1.55,1.86-1.66.32-.04.66.03.99.09.91.32,1.55,1.01,1.66,1.86v-.03ZM231.84,500.82c-1.39.17-1.93,1.13-1.78,2.31.21,1.72,1.43,3.54,3.22,4.62.35-1.57.74-3.59.6-4.66-.23-1.84-1.18-2.36-2.04-2.25h0Z"/>
        <path d="M290.22,524.54c.04.32-.03.66-.09.99-3.69,12.28-7.88,23.98-16.92,25.13-5.16.66-8.49-3.07-8.9-8.06-.75-8.43,4.38-29.12,7.55-41.98.2-1.01.99-1.66,1.85-1.77,1.39-.17,2.94.72,2.52,2.63-6.69,30.72-7.99,35.91-7.4,40.55.4,3.12,1.54,4.4,3.81,4.12,6.68-.86,10.21-12.57,13.07-21.9.32-.91,1.11-1.57,1.97-1.68.32-.04.55.04.88.11.9.21,1.55,1.01,1.66,1.86h0ZM273.29,489.62c-.25-2.05,1.26-3.87,3.3-4.14,2.05-.25,3.86,1.15,4.13,3.19.25,2.05-1.15,3.86-3.19,4.13-2.05.27-3.97-1.13-4.24-3.18h0Z"/>
        <path d="M336.5,518.62c.04.32-.03.66-.09.99-4.53,14.25-9.38,24.17-19.29,25.43-5.05.64-8.4-2.43-9.17-8.46-3.08,5.86-6.97,10.52-12.45,11.22-6.03.76-9.49-4.03-10.31-10.5-1.8-14.1,5.75-40.66,18.77-42.32,4.84-.62,8.24,1.14,10.39,4.25l1.33-5.86,3.61-17.2c.21-.9,1.01-1.55,1.86-1.66,1.84-.23,2.82,1.5,2.53,2.73-.67,3.26-8.81,41.49-9.4,44.62-.98,5.16-2.1,11.76-1.76,14.56.34,2.59,1.54,4.4,4.02,4.08,7.75-.99,11.77-10.58,15.42-22.32.34-.8,1.13-1.46,1.98-1.57.21-.03.55.04.88.11.91.32,1.55,1.01,1.66,1.86v.03ZM310.71,513.72c.68-2.39,1.15-4.64,1.69-6.45.07-.34.04-.55,0-.76-.84-4.92-3.7-7.51-7.9-6.97-9.87,1.58-16.07,25.79-14.92,36.47.6,4.73,1.97,7.73,5.2,7.32,8.71-1.11,13-18.07,15.91-29.6h.01Z"/>
        <path d="M379.88,513.09c.04.32-.03.66-.09.99l-.07.34c-2.94,9.56-7.05,23.54-16.74,24.79-5.16.66-8.23-2.77-8.9-8.06-3.54,6.58-7.67,10.17-12.29,10.76-6.03.76-9.49-4.03-10.31-10.5-1.8-14.1,5.86-40.67,18.77-42.32,4.52-.58,8.1.83,10.52,4.45.42-1.92.84-3.61,1.21-5.08.21-.9,1.01-1.55,1.97-1.68,1.72-.21,2.8,1.39,2.43,2.75l-3.54,15.11c-2.48,11.37-4.84,21.18-4.24,25.91.42,3.23,1.54,4.4,3.81,4.12,6.68-.86,10.35-13.14,12.9-21.55l.07-.34c.32-.91,1.01-1.55,1.86-1.66.32-.04.66.03.99.09.91.32,1.55,1.01,1.66,1.86h0ZM357,507.81l1.7-7.21c-.84-4.92-4.02-7.47-7.9-6.98-9.88,1.47-16.07,25.79-14.92,36.47.6,4.73,1.97,7.73,5.2,7.32,8.71-1.11,13-18.07,15.91-29.6h0Z"/>
        <path d="M424.24,507.54c.04.32-.03.66-.09.99-4.66,16.57-12.32,27.72-27.44,34.36-3.28,15.4-8.98,23.9-16.72,25-6.45.94-11.18-2.73-11.98-9.08-.87-6.78,3.78-12.4,16.39-16.42,2.64-.78,5.47-1.69,8.28-2.8l1.7-8.1c-2.17,2.68-4.71,4.32-7.71,4.71-9.16,1.17-12.52-4.64-13.2-10.01-.42-4.97,1.3-11.22,4.1-22.73l3.94-17.13c.21-.9,1.01-1.55,1.86-1.66,1.82-.23,2.9,1.27,2.53,2.73l-3.83,17.12c-3.07,13.63-4.48,17.2-3.98,21.07.4,3.12,1.86,6.88,8,6.09,5.7-.72,11.14-13.02,13.86-25.95.86-4.37.47-2.36,5.24-22.33.21-.9.99-1.66,1.85-1.77,1.29-.16,2.99,1.15,2.65,2.83-1.15,4.64-3.11,12.43-5.36,22.24l-5.48,25.64-1.01,4.95c11.84-5.78,18.11-16.65,21.88-30.03.32-.91,1.01-1.55,1.86-1.66.32-.04.66.03.99.09.91.32,1.55,1.01,1.66,1.86h-.01ZM391.6,544.84c-1.98.7-3.87,1.37-5.76,1.94-9.68,2.99-13.53,6.31-13.32,11.33.48,3.77,3.26,5.82,6.9,5.24,5.8-.84,10.03-7.18,12.19-18.51h0Z"/>
      </g>
      <g>
        <path d="M481.73,604.87c-1.31,0-2.44-.95-2.65-2.27l-13.16-84.17-11.43,12.92c-.62.7-1.55,1.02-2.48.86s-1.69-.8-2.02-1.68l-32.21-83.46c-.54-1.38.16-2.94,1.54-3.47s2.94.16,3.47,1.54l30.63,79.34,12.29-13.89c.68-.78,1.77-1.09,2.76-.79s1.73,1.14,1.89,2.16l10.8,69.06,11.9-119.71-19.25,10.07c-.88.46-1.96.39-2.77-.17-.82-.58-1.25-1.55-1.13-2.55l3.39-25.72c.19-1.47,1.54-2.51,3-2.31,1.46.19,2.51,1.54,2.31,3l-2.71,20.6,19.08-9.99c.87-.46,1.93-.4,2.75.16.82.55,1.26,1.5,1.17,2.49l-14.46,145.52c-.13,1.34-1.25,2.37-2.59,2.41h-.11Z"/>
        <path d="M376.82,352.34c-1.06,0-2.06-.63-2.48-1.68l-53.66-132.12c-.29-.74-.25-1.57.12-2.27s1.05-1.21,1.82-1.37l107.47-22.41c.78-.16,1.58.03,2.2.51.62.48.99,1.22,1.02,2.01l4.14,119.95,50.05-24.77c.86-.43,1.88-.36,2.68.17s1.25,1.46,1.18,2.41l-2.61,37.83c-.11,1.47-1.38,2.6-2.86,2.49-1.47-.11-2.59-1.38-2.49-2.86l2.29-33.16-49.6,24.54c-.82.4-1.78.36-2.56-.11-.78-.47-1.27-1.3-1.3-2.21l-4.18-120.91-101.21,21.1,52.45,129.14c.56,1.37-.11,2.94-1.47,3.5-.34.13-.67.2-1.01.2Z"/>
      </g>
      <g>
        <g>
          <path d="M165.64,617.42c-.28,0-.56-.09-.79-.25l-6.7-4.93-7.86,2.72c-.48.16-1.02.05-1.38-.31-.36-.36-.5-.88-.34-1.38l2.61-7.9-5.03-6.64c-.31-.4-.36-.95-.13-1.41.23-.46.7-.74,1.19-.74h0l8.32.05,4.76-6.82c.29-.42.79-.63,1.3-.56.51.08.92.43,1.07.92l2.52,7.92,7.96,2.41c.48.15.84.56.94,1.06.08.51-.12,1.01-.54,1.31l-6.76,4.85.16,8.32c0,.51-.27.98-.72,1.22-.2.11-.4.15-.62.15h.01ZM158.37,609.4c.28,0,.56.09.79.25l5.08,3.74-.12-6.31c0-.44.2-.86.56-1.11l5.12-3.67-6.03-1.84c-.42-.13-.75-.46-.88-.87l-1.92-6.01-3.61,5.17c-.25.36-.7.54-1.11.58l-6.31-.04,3.81,5.03c.27.35.35.82.2,1.23l-1.98,5.99,5.97-2.06c.15-.05.29-.08.44-.08h0Z"/>
          <path d="M201.9,617.42c-.28,0-.56-.09-.79-.25l-6.7-4.93-7.86,2.72c-.48.16-1.02.05-1.38-.31-.36-.36-.5-.88-.34-1.38l2.61-7.9-5.03-6.64c-.31-.4-.36-.95-.13-1.41.23-.46.7-.72,1.21-.74l8.32.05,4.76-6.82c.29-.42.79-.63,1.3-.56.51.08.92.43,1.07.92l2.52,7.92,7.96,2.41c.48.15.84.56.94,1.06.08.51-.12,1.01-.54,1.31l-6.76,4.85.16,8.32c0,.51-.27.98-.72,1.22-.19.11-.4.15-.62.15h0ZM194.64,609.4c.28,0,.56.09.79.25l5.08,3.74-.12-6.31c0-.44.2-.86.56-1.11l5.12-3.67-6.03-1.84c-.42-.13-.75-.46-.88-.87l-1.92-6.01-3.61,5.17c-.25.36-.67.54-1.11.58l-6.31-.04,3.81,5.03c.27.35.35.82.2,1.23l-1.98,5.99,5.97-2.06c.15-.05.29-.08.44-.08h0Z"/>
        </g>
        <g>
          <path d="M414.81,617.42c-.28,0-.56-.09-.79-.25l-6.7-4.93-7.86,2.72c-.48.16-1.02.05-1.38-.31-.36-.36-.5-.88-.34-1.38l2.61-7.9-5.03-6.64c-.31-.4-.36-.95-.13-1.41s.68-.72,1.21-.74l8.32.05,4.76-6.82c.29-.42.79-.63,1.3-.56.51.08.92.43,1.07.92l2.52,7.92,7.96,2.41c.48.15.84.56.94,1.06.08.51-.12,1.01-.54,1.31l-6.76,4.85.16,8.32c0,.51-.27.98-.72,1.22-.2.11-.4.15-.62.15h0ZM407.53,609.4c.28,0,.56.09.79.25l5.08,3.74-.12-6.31c0-.44.2-.86.56-1.11l5.12-3.67-6.03-1.84c-.42-.13-.75-.46-.88-.87l-1.92-6.01-3.61,5.17c-.25.36-.71.54-1.11.58l-6.31-.04,3.81,5.03c.27.35.35.82.2,1.23l-1.98,5.99,5.97-2.06c.15-.05.29-.08.44-.08h0Z"/>
          <path d="M451.07,617.42c-.28,0-.56-.09-.79-.25l-6.7-4.93-7.86,2.72c-.48.16-1.02.05-1.38-.31-.36-.36-.5-.88-.34-1.38l2.61-7.9-5.03-6.64c-.31-.4-.36-.95-.13-1.41s.74-.72,1.21-.74l8.32.05,4.76-6.82c.29-.42.79-.63,1.3-.56.51.08.92.43,1.07.92l2.52,7.92,7.96,2.41c.48.15.84.56.94,1.06.08.51-.12,1.01-.54,1.31l-6.76,4.85.16,8.32c0,.51-.27.98-.72,1.22-.19.11-.4.15-.62.15h0ZM443.81,609.4c.28,0,.56.09.79.25l5.08,3.74-.12-6.31c0-.44.2-.86.56-1.11l5.12-3.67-6.03-1.84c-.42-.13-.75-.46-.88-.87l-1.92-6.01-3.61,5.17c-.25.36-.7.54-1.11.58l-6.31-.04,3.81,5.03c.27.35.35.82.2,1.23l-1.98,5.99,5.97-2.06c.15-.05.29-.08.44-.08h0Z"/>
        </g>
      </g>
      <g>
        <path d="M161.31,368.21c-2,0-3.86-.16-5.56-.51-16.22-3.28-29.62-35.82-26.84-56.22,1.51-11.07,7.82-17.04,17.31-16.35,28.5,2.04,78.65,31.56,80.76,32.82,1.27.75,1.69,2.4.94,3.67-.75,1.27-2.4,1.69-3.67.94-.51-.29-51.17-30.13-78.42-32.08-6.57-.46-10.5,3.49-11.62,11.74-2.4,17.55,9.3,47.55,22.59,50.24,20.23,4.1,70.8-22.79,71.31-23.06,1.3-.7,2.94-.2,3.63,1.1.7,1.3.2,2.94-1.1,3.63-1.98,1.06-45.31,24.09-69.34,24.09h.01Z"/>
        <path d="M177.91,336.48c-17.96,0-25.88-6.15-28.94-9.68-3.47-3.99-4.58-8.91-2.92-12.82,1.3-3.04,4.13-4.96,7.55-5.12,13.42-.66,55.09,16.92,56.86,17.67,1.06.44,1.7,1.51,1.64,2.65-.08,1.14-.87,2.1-1.98,2.4-13.26,3.57-23.82,4.91-32.2,4.91h0ZM154.44,314.19h-.59c-1.38.07-2.37.71-2.87,1.88-.64,1.5-.5,4.29,2.04,7.2,2.77,3.2,14.09,12.43,47.75,5.05-14.28-5.68-37.44-14.14-46.33-14.14h0Z"/>
        <path d="M299.68,350.31c-24.16,0-54.76-7.44-56.5-7.87-1.43-.35-2.32-1.81-1.96-3.24.35-1.43,1.8-2.32,3.24-1.96.56.13,56.22,13.67,74.8,4.69,12.2-5.9,16.11-37.87,9.45-54.28-3.14-7.72-7.91-10.58-14.16-8.5-25.92,8.63-67.61,50.07-68.03,50.48-1.05,1.05-2.75,1.05-3.79,0s-1.05-2.75,0-3.79c1.74-1.74,43.02-42.75,70.12-51.78,9.02-3,16.62,1.21,20.82,11.57,7.75,19.09,2.82,53.91-12.08,61.11-5.38,2.6-13.23,3.57-21.92,3.57h0Z"/>
        <path d="M262.41,325.21c-.8,0-1.61,0-2.43-.01-1.14-.01-2.16-.75-2.51-1.84-.36-1.09,0-2.28.92-2.98,1.53-1.17,37.55-28.49,50.71-31.19,3.36-.68,6.57.47,8.58,3.1,2.59,3.38,2.72,8.4.35,13.15-3.02,6.01-14.44,19.77-55.63,19.77h0ZM311.02,294.36c-.27,0-.54.03-.83.09-8.26,1.69-29.25,16.06-41.96,25.31,34.44-1.19,43.11-12.92,45.01-16.72,1.73-3.45,1.18-6.18.19-7.48-.6-.79-1.43-1.19-2.43-1.19h.01Z"/>
        <path d="M236.42,349.99c-1.72,0-3.39-.52-4.83-1.54-1.84-1.3-3.04-3.22-3.43-5.42l-2.65-15.39c-.78-4.56,2.28-8.89,6.84-9.68l1.53-.27c4.54-.78,8.89,2.28,9.68,6.84l2.65,15.39c.78,4.56-2.28,8.89-6.84,9.68h0l-1.53.27c-.47.08-.95.12-1.42.12ZM235.3,322.94c-.17,0-.34.01-.51.04l-1.53.27c-1.64.28-2.73,1.85-2.45,3.49l2.65,15.39c.13.79.58,1.47,1.23,1.94.66.47,1.46.66,2.25.51l1.53-.27c1.64-.28,2.75-1.85,2.47-3.49l-2.65-15.39c-.25-1.46-1.53-2.51-2.98-2.51h-.01Z"/>
      </g>
      <g>
        <path d="M455.22,230.21h-8.04c-1.85,0-3.35-1.5-3.35-3.35s1.5-3.35,3.35-3.35h8.04c1.85,0,3.35,1.5,3.35,3.35s-1.5,3.35-3.35,3.35Z"/>
        <path d="M504.18,652.02h-16.09c-1.85,0-3.35-1.5-3.35-3.35s1.5-3.35,3.35-3.35h16.09c1.85,0,3.35,1.5,3.35,3.35s-1.5,3.35-3.35,3.35ZM461.27,652.02h-16.09c-1.85,0-3.35-1.5-3.35-3.35s1.5-3.35,3.35-3.35h16.09c1.85,0,3.35,1.5,3.35,3.35s-1.5,3.35-3.35,3.35ZM418.38,652.02h-16.09c-1.85,0-3.35-1.5-3.35-3.35s1.5-3.35,3.35-3.35h16.09c1.85,0,3.35,1.5,3.35,3.35s-1.5,3.35-3.35,3.35ZM375.48,652.02h-16.09c-1.85,0-3.35-1.5-3.35-3.35s1.5-3.35,3.35-3.35h16.09c1.85,0,3.35,1.5,3.35,3.35s-1.5,3.35-3.35,3.35ZM332.59,652.02h-16.09c-1.85,0-3.35-1.5-3.35-3.35s1.5-3.35,3.35-3.35h16.09c1.85,0,3.35,1.5,3.35,3.35s-1.5,3.35-3.35,3.35ZM289.69,652.02h-16.09c-1.85,0-3.35-1.5-3.35-3.35s1.5-3.35,3.35-3.35h16.09c1.85,0,3.35,1.5,3.35,3.35s-1.5,3.35-3.35,3.35ZM246.8,652.02h-16.09c-1.85,0-3.35-1.5-3.35-3.35s1.5-3.35,3.35-3.35h16.09c1.85,0,3.35,1.5,3.35,3.35s-1.5,3.35-3.35,3.35ZM203.9,652.02h-16.09c-1.85,0-3.35-1.5-3.35-3.35s1.5-3.35,3.35-3.35h16.09c1.85,0,3.35,1.5,3.35,3.35s-1.5,3.35-3.35,3.35ZM161.01,652.02h-16.09c-1.85,0-3.35-1.5-3.35-3.35s1.5-3.35,3.35-3.35h16.09c1.85,0,3.35,1.5,3.35,3.35s-1.5,3.35-3.35,3.35ZM530.98,652c-1.8,0-3.28-1.42-3.35-3.23-.07-1.85,1.38-3.4,3.23-3.47,4.33-.16,8.26-2.49,10.5-6.26.95-1.6,3-2.12,4.6-1.17s2.12,3,1.17,4.6c-3.4,5.72-9.4,9.29-16.01,9.53h-.13ZM119.37,647.32c-.86,0-1.72-.32-2.36-.98-3.7-3.69-5.74-8.58-5.74-13.77v-3.4c0-1.85,1.5-3.35,3.35-3.35s3.35,1.5,3.35,3.35v3.4c0,3.39,1.34,6.6,3.77,9.02,1.31,1.3,1.31,3.43,0,4.75-.66.66-1.51.99-2.37.99h0ZM546.49,617.7c-1.85,0-3.35-1.5-3.35-3.35v-16.09c0-1.85,1.5-3.35,3.35-3.35s3.35,1.5,3.35,3.35v16.09c0,1.85-1.5,3.35-3.35,3.35ZM114.61,605.7c-1.85,0-3.35-1.5-3.35-3.35v-16.09c0-1.85,1.5-3.35,3.35-3.35s3.35,1.5,3.35,3.35v16.09c0,1.85-1.5,3.35-3.35,3.35ZM546.49,574.8c-1.85,0-3.35-1.5-3.35-3.35v-16.09c0-1.85,1.5-3.35,3.35-3.35s3.35,1.5,3.35,3.35v16.09c0,1.85-1.5,3.35-3.35,3.35ZM114.61,562.81c-1.85,0-3.35-1.5-3.35-3.35v-16.09c0-1.85,1.5-3.35,3.35-3.35s3.35,1.5,3.35,3.35v16.09c0,1.85-1.5,3.35-3.35,3.35ZM546.49,531.91c-1.85,0-3.35-1.5-3.35-3.35v-16.09c0-1.85,1.5-3.35,3.35-3.35s3.35,1.5,3.35,3.35v16.09c0,1.85-1.5,3.35-3.35,3.35ZM114.61,519.91c-1.85,0-3.35-1.5-3.35-3.35v-16.09c0-1.85,1.5-3.35,3.35-3.35s3.35,1.5,3.35,3.35v16.09c0,1.85-1.5,3.35-3.35,3.35ZM546.49,489.01c-1.85,0-3.35-1.5-3.35-3.35v-16.09c0-1.85,1.5-3.35,3.35-3.35s3.35,1.5,3.35,3.35v16.09c0,1.85-1.5,3.35-3.35,3.35ZM114.61,477.02c-1.85,0-3.35-1.5-3.35-3.35v-16.09c0-1.85,1.5-3.35,3.35-3.35s3.35,1.5,3.35,3.35v16.09c0,1.85-1.5,3.35-3.35,3.35ZM546.49,446.12c-1.85,0-3.35-1.5-3.35-3.35v-16.09c0-1.85,1.5-3.35,3.35-3.35s3.35,1.5,3.35,3.35v16.09c0,1.85-1.5,3.35-3.35,3.35ZM114.61,434.12c-1.85,0-3.35-1.5-3.35-3.35v-16.09c0-1.85,1.5-3.35,3.35-3.35s3.35,1.5,3.35,3.35v16.09c0,1.85-1.5,3.35-3.35,3.35ZM546.49,403.22c-1.85,0-3.35-1.5-3.35-3.35v-16.09c0-1.85,1.5-3.35,3.35-3.35s3.35,1.5,3.35,3.35v16.09c0,1.85-1.5,3.35-3.35,3.35ZM114.61,391.22c-1.85,0-3.35-1.5-3.35-3.35v-16.09c0-1.85,1.5-3.35,3.35-3.35s3.35,1.5,3.35,3.35v16.09c0,1.85-1.5,3.35-3.35,3.35ZM546.49,360.33c-1.85,0-3.35-1.5-3.35-3.35v-16.09c0-1.85,1.5-3.35,3.35-3.35s3.35,1.5,3.35,3.35v16.09c0,1.85-1.5,3.35-3.35,3.35ZM114.61,348.33c-1.85,0-3.35-1.5-3.35-3.35v-16.09c0-1.85,1.5-3.35,3.35-3.35s3.35,1.5,3.35,3.35v16.09c0,1.85-1.5,3.35-3.35,3.35ZM546.49,317.43c-1.85,0-3.35-1.5-3.35-3.35v-16.09c0-1.85,1.5-3.35,3.35-3.35s3.35,1.5,3.35,3.35v16.09c0,1.85-1.5,3.35-3.35,3.35ZM114.61,305.43c-1.85,0-3.35-1.5-3.35-3.35v-16.09c0-1.85,1.5-3.35,3.35-3.35s3.35,1.5,3.35,3.35v16.09c0,1.85-1.5,3.35-3.35,3.35ZM546.49,274.54c-1.85,0-3.35-1.5-3.35-3.35v-16.09c0-1.85,1.5-3.35,3.35-3.35s3.35,1.5,3.35,3.35v16.09c0,1.85-1.5,3.35-3.35,3.35ZM114.61,262.54c-1.85,0-3.35-1.5-3.35-3.35v-16.09c0-1.85,1.5-3.35,3.35-3.35s3.35,1.5,3.35,3.35v16.09c0,1.85-1.5,3.35-3.35,3.35ZM540.24,233.6c-.72,0-1.45-.23-2.05-.71-2.25-1.76-4.95-2.68-7.79-2.68h-5.48c-1.85,0-3.35-1.5-3.35-3.35s1.5-3.35,3.35-3.35h5.48c4.34,0,8.46,1.42,11.9,4.09,1.46,1.14,1.73,3.24.59,4.71-.66.84-1.65,1.29-2.65,1.29h0ZM498.11,230.21h-16.09c-1.85,0-3.35-1.5-3.35-3.35s1.5-3.35,3.35-3.35h16.09c1.85,0,3.35,1.5,3.35,3.35s-1.5,3.35-3.35,3.35ZM276.86,230.21h-16.09c-1.85,0-3.35-1.5-3.35-3.35s1.5-3.35,3.35-3.35h16.09c1.85,0,3.35,1.5,3.35,3.35s-1.5,3.35-3.35,3.35ZM233.97,230.21h-16.09c-1.85,0-3.35-1.5-3.35-3.35s1.5-3.35,3.35-3.35h16.09c1.85,0,3.35,1.5,3.35,3.35s-1.5,3.35-3.35,3.35ZM191.07,230.21h-16.09c-1.85,0-3.35-1.5-3.35-3.35s1.5-3.35,3.35-3.35h16.09c1.85,0,3.35,1.5,3.35,3.35s-1.5,3.35-3.35,3.35ZM148.18,230.21h-16.09c-1.85,0-3.35-1.5-3.35-3.35s1.5-3.35,3.35-3.35h16.09c1.85,0,3.35,1.5,3.35,3.35s-1.5,3.35-3.35,3.35Z"/>
        <path d="M311.78,230.21h-8.04c-1.85,0-3.35-1.5-3.35-3.35s1.5-3.35,3.35-3.35h8.04c1.85,0,3.35,1.5,3.35,3.35s-1.5,3.35-3.35,3.35Z"/>
      </g>
    </g>
    <g>
      <g>
        <g>
          <path class="cls-32" d="M200.34,423.13c3.1,3.19,4.91,7.09,5.46,11.7.83,7.02-.86,12.71-5.05,17.06-4.2,4.36-10.63,7.05-19.32,8.07l-42.01,4.93-9.42-80.17,40.87-4.81c8.15-.95,14.77.07,19.88,3.06,5.09,3,8.04,7.9,8.85,14.69.55,4.68-.21,8.77-2.29,12.27s-5.09,6.02-9.05,7.55c4.96.56,8.99,2.44,12.09,5.64h0ZM158.79,413.03l9.75-1.14c2.27-.27,3.89-.91,4.88-1.96.99-1.03,1.37-2.49,1.15-4.38-.23-1.96-.95-3.35-2.16-4.17s-2.94-1.09-5.2-.82l-9.75,1.14,1.33,11.33h0ZM178.5,438.56c.99-.99,1.37-2.48,1.14-4.44-.46-3.85-2.91-5.51-7.36-4.99l-11.43,1.34,1.33,11.33,11.43-1.34c2.27-.27,3.89-.9,4.88-1.89h.01Z"/>
          <path class="cls-32" d="M239.76,433.81l24.24-2.84,2.24,19.02-49.37,5.8-9.42-80.17,25.13-2.96,7.18,61.14h0Z"/>
          <path class="cls-32" d="M324.13,430.89l-26.73,3.14-2.53,12.59-26.38,3.1,19.91-83.62,28.98-3.4,38.65,76.73-26.5,3.11-5.39-11.65h0ZM315.79,412.7l-9.87-21.46-4.62,23.16,14.49-1.7Z"/>
          <path class="cls-32" d="M357.01,377.1c2.48-6.57,6.5-11.92,12.06-16.06,5.56-4.13,12.37-6.68,20.46-7.63,6.94-.82,13.31-.24,19.09,1.72,5.78,1.96,10.67,5.12,14.66,9.46,3.99,4.36,6.93,9.64,8.81,15.84l-26.5,3.11c-1.51-2.51-3.49-4.36-5.87-5.56-2.4-1.21-5.04-1.65-7.91-1.31-4.22.5-7.39,2.48-9.46,5.94-2.08,3.46-2.8,7.87-2.17,13.23.63,5.36,2.36,9.48,5.19,12.36,2.83,2.88,6.35,4.08,10.58,3.58,2.87-.34,5.32-1.37,7.39-3.11,2.05-1.73,3.53-3.99,4.42-6.78l26.5-3.11c-.39,6.47-2.02,12.29-4.89,17.45-2.88,5.16-6.9,9.37-12.06,12.61-5.17,3.24-11.22,5.28-18.16,6.1-8.08.95-15.29.05-21.66-2.68-6.37-2.73-11.51-7.01-15.46-12.82-3.94-5.82-6.37-12.68-7.31-20.62-.94-7.92-.16-15.17,2.32-21.74h-.01Z"/>
          <path class="cls-32" d="M495.4,423.03l-27.41-32.02,4.09,34.76-25.13,2.96-9.42-80.17,25.13-2.96,3.97,33.74,19.02-36.45,28.42-3.34-23.11,41.64,34.36,38.32-29.89,3.51h-.01Z"/>
        </g>
        <g>
          <path class="cls-40" d="M218.79,486.69c-5.38.68-10.29.76-15.01.6-3.16,6.97-5.75,20.09-7.27,27.95l-.75,4.36,9.58-1.22c1.29-.16,2.4.79,2.56,2.08.15,1.18-.68,2.39-1.97,2.55l-11.09,1.42c-6.17,27.92-8.46,39.14-26.43,41.45-12.05,1.54-19.93-6.21-21.1-17-1.02-13.11,8.31-24.03,20.34-25.79,1.29-.16,2.4.79,2.55,1.97.16,1.29-.67,2.49-1.96,2.65-9.58,1.22-17.67,10.68-16.39,20.7,1.09,8.5,6.84,14.12,15.98,12.95,14.96-1.92,16.43-11.84,22.16-36.3l-6.25.79c-1.29.16-2.4-.79-2.55-1.97-.16-1.29.67-2.49,1.96-2.65l7.75-.99,1.11-5.83c1.35-7.39,4.06-21.3,6.89-27.47-4.32-.43-8.35-1.13-12.25-1.72-7.71-1.21-14.85-2.37-22.28-1.42-7.21.92-13.19,8.9-12.25,16.22.99,7.75,6.61,10.64,13.93,9.71,3.12-.4,6.46-1.7,9.5-3.51.31-.15.62-.29,1.05-.35,1.5-.19,2.33,1.13,2.44,1.98s-.23,1.68-1.03,2.21c-3.55,2.2-7.63,3.71-11.5,4.21-10.44,1.34-17.71-4.2-18.9-13.55-1.33-10.44,6.72-20.21,16.19-21.43,7.96-1.02,15.44.11,23.59,1.47,4.34.64,9.03,1.37,14.02,1.82,3.99-5.54,10.32-9.09,17.19-10.17,5.5-.7,10.19.99,10.74,5.29.62,4.84-4.75,8.27-10.55,9.01h.01ZM219.18,476.91c-4.93.74-8.49,2.95-11.93,5.9,3.5,0,7.09-.15,10.97-.63,3.34-.43,6.74-2.06,6.49-3.99-.16-1.29-3.36-1.54-5.52-1.26h0Z"/>
          <path class="cls-40" d="M259.91,524.21c.04.32-.03.66-.09.99-4.95,16.93-9.49,24.18-16.81,25.12h-.11c-5.05.66-8.12-2.77-8.79-8.06-.28-2.16-.23-4.34.19-7.13.42-3.55,3.32-18.47,3.99-20.97-8.53-1.65-9.76-1.93-12.28-2.8-.27,1.34-.83,2.95-7.04,22.88-.32.91-1.02,1.45-1.77,1.54-.43.05-.76,0-1.1-.08-.8-.34-1.45-1.02-1.55-1.88-.04-.32.03-.66.09-.99l6.22-19.83.88-3.39c-3.51-1.85-6.14-4.36-6.65-8.34-.56-4.41,2.23-7.4,5.67-7.83,3.87-.5,6.6,2,7.14,6.3.21,1.73-.08,2.75-.84,7.1,3.2,1.13,7.01,1.84,10.28,2.52,1.57.24,3.02.5,4.25.76,1.23.28,1.96,1.61,1.69,2.96-.95,3.73-4.14,19.79-4.45,22.56-.36,2.35-.34,4.2-.21,6.05.35,2.69,1.43,4.41,3.81,4.12,5.27-.67,8.59-7.23,12.96-21.89.32-.91,1.01-1.55,1.86-1.66.32-.04.66.03.99.09.91.32,1.55,1.01,1.66,1.86v-.03ZM221.33,497.97c-1.39.17-1.93,1.13-1.78,2.31.21,1.72,1.43,3.54,3.22,4.62.35-1.57.75-3.59.6-4.66-.23-1.84-1.18-2.37-2.04-2.25h0Z"/>
          <path class="cls-40" d="M279.71,521.68c.04.32-.03.66-.09.99-3.69,12.28-7.88,23.98-16.92,25.13-5.16.66-8.49-3.07-8.9-8.06-.75-8.43,4.38-29.12,7.55-41.98.2-1.01.99-1.66,1.85-1.77,1.39-.17,2.94.72,2.52,2.63-6.69,30.72-7.99,35.91-7.4,40.55.4,3.12,1.54,4.4,3.81,4.12,6.68-.86,10.21-12.57,13.07-21.9.32-.91,1.11-1.57,1.97-1.68.32-.04.55.04.88.11.9.21,1.55,1.01,1.66,1.86h0ZM262.78,486.76c-.25-2.05,1.26-3.87,3.3-4.14,2.05-.25,3.86,1.15,4.13,3.19.25,2.05-1.15,3.86-3.19,4.13-2.05.27-3.97-1.13-4.24-3.18h0Z"/>
          <path class="cls-40" d="M325.99,515.77c.04.32-.03.66-.09.99-4.53,14.25-9.38,24.17-19.29,25.43-5.05.64-8.4-2.43-9.17-8.46-3.08,5.86-6.97,10.51-12.47,11.22-6.03.76-9.49-4.03-10.31-10.5-1.8-14.1,5.75-40.66,18.77-42.32,4.84-.62,8.24,1.14,10.39,4.25l1.33-5.86,3.61-17.2c.21-.9,1.01-1.55,1.86-1.66,1.82-.23,2.82,1.5,2.53,2.73-.67,3.26-8.81,41.49-9.4,44.62-.98,5.16-2.1,11.76-1.76,14.56.34,2.59,1.54,4.4,4.02,4.08,7.75-.99,11.77-10.59,15.42-22.32.34-.8,1.13-1.46,1.98-1.57.21-.03.55.04.88.11.91.32,1.55,1.01,1.66,1.86l.03.03ZM300.2,510.86c.68-2.39,1.15-4.64,1.69-6.45.07-.34.04-.55,0-.76-.84-4.92-3.7-7.51-7.9-6.98-9.87,1.58-16.07,25.79-14.92,36.47.6,4.73,1.97,7.73,5.2,7.32,8.71-1.11,13-18.07,15.91-29.6h.01Z"/>
          <path class="cls-40" d="M369.37,510.23c.04.32-.03.66-.09.99l-.07.34c-2.94,9.56-7.05,23.54-16.74,24.79-5.16.66-8.23-2.77-8.9-8.06-3.54,6.58-7.67,10.17-12.29,10.76-6.03.76-9.49-4.03-10.31-10.5-1.8-14.1,5.86-40.67,18.77-42.32,4.52-.58,8.1.83,10.52,4.45.42-1.92.86-3.61,1.21-5.08.21-.9,1.01-1.55,1.97-1.68,1.73-.21,2.8,1.39,2.43,2.75l-3.54,15.11c-2.48,11.37-4.84,21.18-4.24,25.91.42,3.23,1.54,4.4,3.81,4.12,6.68-.86,10.35-13.14,12.9-21.55l.07-.34c.32-.91,1.01-1.55,1.86-1.66.32-.04.66.03.99.09.91.32,1.55,1.01,1.66,1.86h0ZM346.49,504.95l1.7-7.21c-.84-4.92-4.02-7.47-7.9-6.98-9.88,1.47-16.07,25.79-14.92,36.47.6,4.73,1.97,7.73,5.2,7.32,8.71-1.11,13-18.07,15.91-29.6h0Z"/>
          <path class="cls-40" d="M413.73,504.68c.04.32-.03.66-.09.99-4.66,16.57-12.32,27.72-27.45,34.36-3.28,15.4-8.98,23.9-16.72,25-6.45.94-11.18-2.73-11.98-9.08-.87-6.78,3.78-12.4,16.39-16.42,2.64-.78,5.47-1.69,8.28-2.82l1.7-8.1c-2.17,2.68-4.69,4.32-7.71,4.71-9.16,1.17-12.52-4.64-13.2-10.01-.42-4.97,1.3-11.22,4.1-22.73l3.94-17.13c.21-.9,1.01-1.55,1.86-1.66,1.84-.23,2.9,1.27,2.53,2.73l-3.83,17.12c-3.07,13.63-4.48,17.2-3.98,21.07.4,3.12,1.86,6.88,8,6.09,5.7-.72,11.14-13.02,13.86-25.95.86-4.37.47-2.36,5.24-22.33.21-.9.99-1.66,1.85-1.77,1.29-.16,2.99,1.15,2.65,2.83-1.15,4.64-3.11,12.43-5.36,22.24l-5.48,25.64-1.01,4.95c11.84-5.78,18.11-16.64,21.88-30.03.32-.91,1.01-1.55,1.86-1.66.32-.04.66.03.99.09.91.32,1.55,1.01,1.66,1.86h0ZM381.09,541.99c-2,.7-3.87,1.37-5.76,1.94-9.68,2.99-13.53,6.31-13.32,11.33.48,3.77,3.26,5.82,6.9,5.24,5.8-.84,10.03-7.18,12.19-18.51h0Z"/>
        </g>
        <g>
          <polyline class="cls-33" points="415.06 442.63 447.28 526.1 462.49 508.92 476.53 598.7 490.99 453.18 467.35 465.55 470.73 439.84"/>
          <polyline class="cls-33" points="371.62 346.17 317.96 214.05 425.43 191.64 429.72 315.74 483.5 289.12 480.89 326.95"/>
        </g>
        <g>
          <g>
            <polygon class="cls-35" points="160.44 612.59 153.18 607.26 144.65 610.21 147.48 601.64 142.04 594.46 151.06 594.5 156.22 587.1 158.96 595.69 167.59 598.32 160.27 603.57 160.44 612.59"/>
            <polygon class="cls-35" points="196.7 612.59 189.44 607.26 180.91 610.21 183.75 601.64 178.3 594.46 187.32 594.5 192.48 587.1 195.23 595.69 203.86 598.32 196.53 603.57 196.7 612.59"/>
          </g>
          <g>
            <polygon class="cls-35" points="409.61 612.59 402.33 607.26 393.81 610.21 396.65 601.64 391.21 594.46 400.23 594.5 405.39 587.1 408.12 595.69 416.76 598.32 409.43 603.57 409.61 612.59"/>
            <polygon class="cls-35" points="445.87 612.59 438.61 607.26 430.08 610.21 432.92 601.64 427.47 594.46 436.49 594.5 441.65 587.1 444.4 595.69 453.03 598.32 445.7 603.57 445.87 612.59"/>
          </g>
        </g>
        <g>
          <path class="cls-38" d="M220.42,326.76s-51.38-30.43-79.58-32.44c-28.2-2.01-11.18,62.94,10.24,67.28s73.11-23.32,73.11-23.32"/>
          <path class="cls-38" d="M204.21,325.49s-42.71-18.07-55.68-17.45c-12.98.62-7.83,34.54,55.68,17.45Z"/>
          <path class="cls-38" d="M239.42,324.27s42.25-42.2,69.08-51.14c26.82-8.93,26.41,58.22,6.73,67.72-19.68,9.52-76.61-4.5-76.61-4.5"/>
          <path class="cls-38" d="M254.81,319.03s36.9-28.08,49.64-30.7c12.72-2.61,16.14,31.54-49.64,30.7Z"/>
          <rect class="cls-36" x="224.2" y="316.81" width="12.94" height="27.01" rx="4.25" ry="4.25" transform="translate(-52.66 43.88) rotate(-9.76)"/>
        </g>
      </g>
      <path class="cls-31" d="M441.97,223.37h83.23c8.85,0,16.09,7.24,16.09,16.09v389.64c0,8.85-7.24,16.09-16.09,16.09H125.5c-8.85,0-16.09-7.24-16.09-16.09V239.45c0-8.85,7.24-16.09,16.09-16.09h181.09"/>
    </g>
  </g>
  <g class="cls-12">
    <text class="cls-28" transform="translate(49.42 142.98)"><tspan x="0" y="0">Grandes Descuentos</tspan></text>
  </g>
</svg>