<?xml version="1.0" encoding="UTF-8"?>
<svg id="Capa_2" data-name="Capa 2" xmlns="http://www.w3.org/2000/svg" xmlns:xlink="http://www.w3.org/1999/xlink" viewBox="0 0 500 121.39">
  <defs>
    <style>
      .cls-1 {
        fill: url(#Degradado_sin_nombre_5);
      }

      .cls-2 {
        fill: #fff;
      }

      .cls-3 {
        fill: #2e3037;
      }

      .cls-4 {
        fill: url(#Degradado_sin_nombre_17);
      }

      .cls-5 {
        fill: url(#Degradado_sin_nombre_22);
      }

      .cls-6 {
        fill: url(#Degradado_sin_nombre_14);
      }
    </style>
    <linearGradient id="Degradado_sin_nombre_22" data-name="Degradado sin nombre 22" x1="62.64" y1="30.35" x2="125.28" y2="30.35" gradientUnits="userSpaceOnUse">
      <stop offset="0" stop-color="#6e5af0"/>
      <stop offset="1" stop-color="#5074f9"/>
    </linearGradient>
    <linearGradient id="Degradado_sin_nombre_5" data-name="Degradado sin nombre 5" x1="0" y1="30.35" x2="62.64" y2="30.35" gradientUnits="userSpaceOnUse">
      <stop offset="0" stop-color="#e341a2"/>
      <stop offset="1" stop-color="#a856dc"/>
    </linearGradient>
    <linearGradient id="Degradado_sin_nombre_14" data-name="Degradado sin nombre 14" x1="0" y1="91.04" x2="62.64" y2="91.04" gradientUnits="userSpaceOnUse">
      <stop offset=".01" stop-color="#fe8626"/>
      <stop offset="1" stop-color="#fb5e80"/>
    </linearGradient>
    <linearGradient id="Degradado_sin_nombre_17" data-name="Degradado sin nombre 17" x1="62.64" y1="91.04" x2="125.28" y2="91.04" gradientUnits="userSpaceOnUse">
      <stop offset=".01" stop-color="#2fb4e6"/>
      <stop offset="1" stop-color="#628def"/>
    </linearGradient>
  </defs>
  <g id="Capa_1-2" data-name="Capa 1">
    <g>
      <g>
        <path class="cls-3" d="M167.7,73.58v25.75h-14.71V23.3h32.8c2.18,0,8.05,2.75,10.07,4.04,19.93,12.75,10.32,46.24-13.74,46.24h-14.41ZM167.7,60.09h15.02c1.04,0,5.29-2.7,6.11-3.7,3.53-4.36,3.53-12.14,0-16.51-.81-1-5.07-3.7-6.11-3.7h-15.02v23.91Z"/>
        <path class="cls-3" d="M308.1,73.58l.61,25.75h-14.71V23.3h33.41c4.22,0,12.35,5.57,15.01,8.9,12.34,15.49,1.89,41.37-18.68,41.37h-15.63ZM308.1,60.09h15.63c.27,0,3.66-1.59,4.19-1.94,6.23-4.07,6.17-15.91,0-20.04-.51-.34-3.94-1.94-4.19-1.94h-15.63v23.91Z"/>
        <path class="cls-3" d="M374.18,42.48c38.22-4.61,45.9,49.99,11.2,57.8-40.44,9.09-49.96-53.12-11.2-57.8ZM376.62,55.35c-18.69,2.5-16.15,33.7,2.89,32.33,19.96-1.43,17.46-35.05-2.89-32.33Z"/>
        <path class="cls-3" d="M458.92,59.47l-13.08.64c-2.55-9.41-21.64-10.54-17.91,1.23,1.47,4.62,14.45,5.07,18.85,6.28,20.7,5.68,14.22,28.67-3.77,32.65-12.79,2.83-28.56-2.79-31.3-16.89l13.09-1.13c1.72,2.02,2.75,4.38,5,6.03,5.78,4.23,18.42,1.35,15.16-6.58-1.93-4.7-17.48-5.76-22.82-8.44-15.64-7.87-7.68-28.06,7.81-30.79,13.5-2.38,25.47,3.3,28.96,17.01Z"/>
        <path class="cls-3" d="M249.55,43.54l10.43,15.94c1.24.26.77-.37,1.05-.8,3.21-4.86,6.4-10.04,9.06-15.14h16.55l-18.29,26.77,20.12,28.73c.16,1.87-.66.3-.91.3h-15.94l-11.65-17.77-11.34,17.77h-16.25c-.25,0-1.07,1.58-.91-.3l20.22-28.82-18.39-26.67h16.25Z"/>
        <path class="cls-3" d="M486.51,29.44v14.1h13.49v11.34c-.39.6-2.21.92-2.76.92h-9.81c-.19,0-.47-.78-.92-.61v28.51c0,3.96,10.66,4.45,13.49,3.37v12.26c-9.86,2.1-21.76,2.29-26.05-8.59-.91-2.31-2.15-7.79-2.15-10.11v-25.44l-7.69.38-.9-.69v-11.34h8.58v-14.1h14.71Z"/>
        <path class="cls-3" d="M226.56,43.54v56.4c-.45.16-.73-.61-.92-.61h-12.26c-.19,0-.47.78-.92.61v-56.4h14.1Z"/>
        <path class="cls-3" d="M217.82,20.38c12.75-2.2,13.44,17.85-.11,15.76-8.35-1.29-8.37-14.3.11-15.76Z"/>
      </g>
      <g>
        <path class="cls-5" d="M125.28,60.7V18.6c0-10.27-8.33-18.6-18.6-18.6h-44.04v60.7h62.64Z"/>
        <path class="cls-1" d="M62.64,0H18.6C8.33,0,0,8.33,0,18.6v42.1h62.64V0Z"/>
        <path class="cls-6" d="M0,60.7v42.1c0,10.27,8.33,18.6,18.6,18.6h44.04v-60.7H0Z"/>
        <path class="cls-4" d="M62.64,60.7v60.7h44.04c10.27,0,18.6-8.33,18.6-18.6v-42.1h-62.64Z"/>
      </g>
      <path class="cls-2" d="M90.92,100.33v-3.99h-56.56c-1.15,0-2.23-.23-3.21-.65-1.48-.62-2.75-1.68-3.64-3-.89-1.32-1.41-2.89-1.41-4.61v-54.78c0-1.15.23-2.23.65-3.21.62-1.48,1.68-2.75,3-3.64,1.32-.89,2.89-1.41,4.61-1.41h56.56c1.15,0,2.23.23,3.21.65,1.48.62,2.75,1.68,3.64,3,.89,1.32,1.41,2.89,1.41,4.61v54.78c0,1.15-.23,2.23-.65,3.21-.62,1.48-1.68,2.75-3,3.64-1.32.89-2.89,1.41-4.61,1.41v7.97c4.47,0,8.55-1.82,11.48-4.75,2.93-2.92,4.76-7.01,4.75-11.48v-54.78c0-4.47-1.82-8.55-4.75-11.48-2.92-2.93-7.01-4.76-11.48-4.75h-56.56c-4.47,0-8.55,1.82-11.48,4.75-2.93,2.92-4.76,7.01-4.75,11.48v54.78c0,4.47,1.82,8.55,4.75,11.48,2.92,2.93,7.01,4.76,11.48,4.75h56.56v-3.99Z"/>
    </g>
  </g>
</svg>